<mxfile host="Electron" modified="2023-08-11T01:32:39.987Z" agent="Mozilla/5.0 (Windows NT 10.0; Win64; x64) AppleWebKit/537.36 (KHTML, like Gecko) draw.io/21.6.5 Chrome/114.0.5735.243 Electron/25.3.1 Safari/537.36" etag="rBeRYvBwHTmGdm_rp2ca" version="21.6.5" type="device">
  <diagram name="第 1 页" id="LnGDdqHNbbNWochxSnWf">
    <mxGraphModel dx="1036" dy="1783" grid="1" gridSize="10" guides="1" tooltips="1" connect="1" arrows="1" fold="1" page="1" pageScale="1" pageWidth="827" pageHeight="1169" math="0" shadow="0">
      <root>
        <mxCell id="0" />
        <mxCell id="1" parent="0" />
        <mxCell id="uA6V0HNkmtJkRHtkiWYz-4" style="edgeStyle=orthogonalEdgeStyle;rounded=0;sketch=1;hachureGap=4;jiggle=2;curveFitting=1;orthogonalLoop=1;jettySize=auto;html=1;exitX=1;exitY=0.5;exitDx=0;exitDy=0;entryX=0;entryY=0.5;entryDx=0;entryDy=0;fontFamily=Architects Daughter;fontSource=https%3A%2F%2Ffonts.googleapis.com%2Fcss%3Ffamily%3DArchitects%2BDaughter;fontSize=16;" edge="1" parent="1" source="uA6V0HNkmtJkRHtkiWYz-1" target="uA6V0HNkmtJkRHtkiWYz-2">
          <mxGeometry relative="1" as="geometry" />
        </mxCell>
        <mxCell id="uA6V0HNkmtJkRHtkiWYz-1" value="ListableBeanFactory" style="rounded=1;whiteSpace=wrap;html=1;sketch=1;hachureGap=4;jiggle=2;curveFitting=1;fontFamily=Architects Daughter;fontSource=https%3A%2F%2Ffonts.googleapis.com%2Fcss%3Ffamily%3DArchitects%2BDaughter;fontSize=20;" vertex="1" parent="1">
          <mxGeometry x="130" y="65" width="210" height="70" as="geometry" />
        </mxCell>
        <mxCell id="uA6V0HNkmtJkRHtkiWYz-2" value="&lt;span style=&quot;color: rgb(77, 77, 77); font-family: -apple-system, &amp;quot;SF UI Text&amp;quot;, Arial, &amp;quot;PingFang SC&amp;quot;, &amp;quot;Hiragino Sans GB&amp;quot;, &amp;quot;Microsoft YaHei&amp;quot;, &amp;quot;WenQuanYi Micro Hei&amp;quot;, sans-serif; font-size: 16px; font-style: normal; font-variant-ligatures: no-common-ligatures; font-variant-caps: normal; font-weight: 400; letter-spacing: normal; orphans: 2; text-align: start; text-indent: 0px; text-transform: none; widows: 2; word-spacing: 0px; -webkit-text-stroke-width: 0px; background-color: rgb(255, 255, 255); text-decoration-thickness: initial; text-decoration-style: initial; text-decoration-color: initial; float: none; display: inline !important;&quot;&gt;这个工厂接口最大的特点就是可以列出工厂可以生产的所有实例。当然，工厂并没有直接提供返回所有实例的方法，也没这个必要。它可以返回指定类型的所有的实例。而且你可以通过getBeanDefinitionNames()得到工厂所有bean的名字，然后根据这些名字得到所有的Bean。这个工厂接口扩展了BeanFactory的功能，作为上文指出的BeanFactory二级接口，有9个独有的方法，扩展了跟BeanDefinition的功能，提供了BeanDefinition、BeanName、注解有关的各种操作。它可以根据条件返回Bean的集合，这就是它名字的由来——ListableBeanFactory。&lt;/span&gt;" style="text;whiteSpace=wrap;html=1;fontSize=20;fontFamily=Architects Daughter;fillColor=#d5e8d4;strokeColor=#82b366;" vertex="1" parent="1">
          <mxGeometry x="470" y="-10" width="560" height="220" as="geometry" />
        </mxCell>
        <mxCell id="uA6V0HNkmtJkRHtkiWYz-5" value="HierarchicalBeanFactory" style="rounded=1;whiteSpace=wrap;html=1;sketch=1;hachureGap=4;jiggle=2;curveFitting=1;fontFamily=Architects Daughter;fontSource=https%3A%2F%2Ffonts.googleapis.com%2Fcss%3Ffamily%3DArchitects%2BDaughter;fontSize=20;fillColor=#dae8fc;strokeColor=#6c8ebf;" vertex="1" parent="1">
          <mxGeometry x="95" y="440" width="280" height="80" as="geometry" />
        </mxCell>
        <mxCell id="uA6V0HNkmtJkRHtkiWYz-7" value="AutowireCapableBeanFactory" style="rounded=1;whiteSpace=wrap;html=1;sketch=1;hachureGap=4;jiggle=2;curveFitting=1;fontFamily=Architects Daughter;fontSource=https%3A%2F%2Ffonts.googleapis.com%2Fcss%3Ffamily%3DArchitects%2BDaughter;fontSize=20;fillColor=#f8cecc;strokeColor=#b85450;" vertex="1" parent="1">
          <mxGeometry x="480" y="440" width="280" height="80" as="geometry" />
        </mxCell>
        <mxCell id="uA6V0HNkmtJkRHtkiWYz-8" value="ListableBeanFactory" style="rounded=1;whiteSpace=wrap;html=1;sketch=1;hachureGap=4;jiggle=2;curveFitting=1;fontFamily=Architects Daughter;fontSource=https%3A%2F%2Ffonts.googleapis.com%2Fcss%3Ffamily%3DArchitects%2BDaughter;fontSize=20;fillColor=#f8cecc;strokeColor=#b85450;" vertex="1" parent="1">
          <mxGeometry x="870" y="440" width="280" height="80" as="geometry" />
        </mxCell>
        <mxCell id="uA6V0HNkmtJkRHtkiWYz-11" style="edgeStyle=orthogonalEdgeStyle;rounded=0;sketch=1;hachureGap=4;jiggle=2;curveFitting=1;orthogonalLoop=1;jettySize=auto;html=1;exitX=0.5;exitY=1;exitDx=0;exitDy=0;entryX=0.5;entryY=0;entryDx=0;entryDy=0;fontFamily=Architects Daughter;fontSource=https%3A%2F%2Ffonts.googleapis.com%2Fcss%3Ffamily%3DArchitects%2BDaughter;fontSize=16;" edge="1" parent="1" source="uA6V0HNkmtJkRHtkiWYz-9" target="uA6V0HNkmtJkRHtkiWYz-5">
          <mxGeometry relative="1" as="geometry" />
        </mxCell>
        <mxCell id="uA6V0HNkmtJkRHtkiWYz-12" style="edgeStyle=orthogonalEdgeStyle;rounded=0;sketch=1;hachureGap=4;jiggle=2;curveFitting=1;orthogonalLoop=1;jettySize=auto;html=1;exitX=0.5;exitY=1;exitDx=0;exitDy=0;fontFamily=Architects Daughter;fontSource=https%3A%2F%2Ffonts.googleapis.com%2Fcss%3Ffamily%3DArchitects%2BDaughter;fontSize=16;" edge="1" parent="1" source="uA6V0HNkmtJkRHtkiWYz-9" target="uA6V0HNkmtJkRHtkiWYz-7">
          <mxGeometry relative="1" as="geometry" />
        </mxCell>
        <mxCell id="uA6V0HNkmtJkRHtkiWYz-13" style="edgeStyle=orthogonalEdgeStyle;rounded=0;sketch=1;hachureGap=4;jiggle=2;curveFitting=1;orthogonalLoop=1;jettySize=auto;html=1;exitX=0.5;exitY=1;exitDx=0;exitDy=0;entryX=0.613;entryY=-0.015;entryDx=0;entryDy=0;entryPerimeter=0;fontFamily=Architects Daughter;fontSource=https%3A%2F%2Ffonts.googleapis.com%2Fcss%3Ffamily%3DArchitects%2BDaughter;fontSize=16;" edge="1" parent="1" source="uA6V0HNkmtJkRHtkiWYz-9" target="uA6V0HNkmtJkRHtkiWYz-8">
          <mxGeometry relative="1" as="geometry" />
        </mxCell>
        <mxCell id="uA6V0HNkmtJkRHtkiWYz-9" value="BeanFactory" style="rounded=1;whiteSpace=wrap;html=1;sketch=1;hachureGap=4;jiggle=2;curveFitting=1;fontFamily=Architects Daughter;fontSource=https%3A%2F%2Ffonts.googleapis.com%2Fcss%3Ffamily%3DArchitects%2BDaughter;fontSize=20;fillColor=#d5e8d4;strokeColor=#82b366;" vertex="1" parent="1">
          <mxGeometry x="480" y="250" width="280" height="80" as="geometry" />
        </mxCell>
        <mxCell id="uA6V0HNkmtJkRHtkiWYz-16" value="" style="edgeStyle=orthogonalEdgeStyle;rounded=0;sketch=1;hachureGap=4;jiggle=2;curveFitting=1;orthogonalLoop=1;jettySize=auto;html=1;fontFamily=Architects Daughter;fontSource=https%3A%2F%2Ffonts.googleapis.com%2Fcss%3Ffamily%3DArchitects%2BDaughter;fontSize=16;" edge="1" parent="1" source="uA6V0HNkmtJkRHtkiWYz-14" target="uA6V0HNkmtJkRHtkiWYz-15">
          <mxGeometry relative="1" as="geometry" />
        </mxCell>
        <mxCell id="uA6V0HNkmtJkRHtkiWYz-14" value="下面就进行组合接口，让其扩展自身能力" style="text;html=1;strokeColor=#9673a6;fillColor=#e1d5e7;align=center;verticalAlign=middle;whiteSpace=wrap;rounded=0;fontSize=20;fontFamily=Architects Daughter;" vertex="1" parent="1">
          <mxGeometry x="390" y="585" width="450" height="85" as="geometry" />
        </mxCell>
        <mxCell id="uA6V0HNkmtJkRHtkiWYz-18" style="edgeStyle=orthogonalEdgeStyle;rounded=0;sketch=1;hachureGap=4;jiggle=2;curveFitting=1;orthogonalLoop=1;jettySize=auto;html=1;exitX=0.5;exitY=1;exitDx=0;exitDy=0;fontFamily=Architects Daughter;fontSource=https%3A%2F%2Ffonts.googleapis.com%2Fcss%3Ffamily%3DArchitects%2BDaughter;fontSize=16;" edge="1" parent="1" source="uA6V0HNkmtJkRHtkiWYz-15" target="uA6V0HNkmtJkRHtkiWYz-17">
          <mxGeometry relative="1" as="geometry" />
        </mxCell>
        <mxCell id="uA6V0HNkmtJkRHtkiWYz-15" value="案例" style="whiteSpace=wrap;html=1;fontSize=20;fontFamily=Architects Daughter;fillColor=#e1d5e7;strokeColor=#9673a6;gradientColor=none;rounded=0;sketch=1;hachureGap=4;jiggle=2;curveFitting=1;fontSource=https%3A%2F%2Ffonts.googleapis.com%2Fcss%3Ffamily%3DArchitects%2BDaughter;" vertex="1" parent="1">
          <mxGeometry x="555" y="762.5" width="120" height="60" as="geometry" />
        </mxCell>
        <mxCell id="uA6V0HNkmtJkRHtkiWYz-17" value="" style="shape=image;verticalLabelPosition=bottom;labelBackgroundColor=default;verticalAlign=top;aspect=fixed;imageAspect=0;image=data:image/png,iVBORw0KGgoAAAANSUhEUgAABWIAAANJCAYAAACGcUUkAAAgAElEQVR4nOzda2xb553v+9+iLpaoi7WoSJZsJSwpeWwncerTKr5EkwZGZp9WGae5DDLYM9go3EzRvjlAERQo9n4xmMt+sQfFKYK+bE52Jsi7g57cjjNJOntnEtf1RTv2mYw9HdtjSSwT25Iti9TNumut84KibiQlUuTiorS+H8BIJC4+z389z1qPtP56+DzGIwcP2QIAF7S07Nbg4G23w1jXVogRpYFrZWO00dZBXwEAAACFZ5CIBQAAAAAAAABn+dwOAAAAAAAAAAC2OxKxAAAAAAAAAOAwErEAAAAAAAAA4LDy8bExt2MAAAAAAAAAgG2toDNiA2Z9IYvbMnWXQv1te1pcq9vL/e52DPS7e+h36i82N/td8nbbu33u3PPerN/L/e52DPS7e+h393i17d2+7t3uey+3vZfveS+3fSn0O0sTAAAAAAAAAIDDSMQCAAAAAAAAgMNIxAIAAAAAAACAw0jEAgAAAAAAAIDDSMQCAAAAAAAAgMNIxAIAAAAAAACAw8rdDgAAAADe8+d/9qduhwBsO59+9hsNDAy6HQYAAMiARCwAAABcEY1GNTEx4XYYwJZXW1urYDDodhgAAGADJGIBAADgiomJCcXjcbfDALY8wzDcDgEAAGSBNWIBAAAAAAAAwGEkYgEAAAAAAADAYSRiAQAAAAAAAMBhJGIBAAAAAAAAwGEkYgEAAAAAAADAYSRiAQAAAAAAAMBhJGIBAAAAAAAAwGHlbgcAAAAA5MSQKgM7VFZdJqPSJ3vB1sLkguZiM7IXbLejAwAAANIiEQsAAIAtoaymXHUP16uqza+y6tRfY+15SzOD0xq/OqrZoRkXIgQAAAAyIxELAACA0mZI9Y+Zqt1fJ/kMTQyMafTyqKZGpjQ3NaeKqnJV1u5QXWu9Gh5sUFNbq6ZvTWqkZ1gL0wtuRw8AAABIIhELAACAEmZUGGp8slk7Wqo1+tWobl36UtMj06uOSXw1ruHeeyqvLNOux3ar+ZFdeuDbrRr+7I7mR+fcCB0AAABYhUQsAAAASpMhNT7ZrMpdVbp96aYGrwxs+Jb52QXduviVxm6NKvRUuxqP79K9Xw9oYaq0Z8YGj3apJe0rtzV4rk9R39bcYzfzeS0bPHdmy54fAABALkjEAgAAoCTVP2ZqR0t11knYlcYHxtT/Tze099v7FPhWs+7946BsO7uNvHyVkmxD1lxxNv6yrJAOHjuhTtNIf8AzUrz/lN57Y2slLDc8L0m2HdOlgTOKRosYGAAAgEtIxAIAAKDklNWUq3Z/nUa/Gk1Jwu56tEVN+5tT3jMZn1T/J71LX0/cndCtizfVduQhVX+tRpORiXXrrDtQpvpHfZq/b8sok8qqEgnEW78q3tIGdrxXkfjy16bZLtM0ZIaf1cmfNOvNn7+9pZKxSWvPa9mwhoocixXs0skXuxTSjS3bngAAYGsiEQsAAICSU/dwveQzdOvSlymvzY7PaHxwXGUVZWoImro/dF/To1OaHZ9JOXbo+l01HWhW7SM7N0zE1rQnEnJ3PpxPxLDfp/qDZQU4m+yN9H6it05FVn0v+OxP9f3HA1LDXh0MaUvOHk13XsuKnAhtPaCwGZCdNjEMAADgHP78CwAAgJJiGIaq2vwavz2WsjGXJMWjcUV/G9Htf74pSYr1DSv624gG/uV2yrG2Zevev99TRX2FKhoqM9fpk8qqJWt2eTmCqQGrAGeTv8j7Z9Vv2zKMgAKtbkcDAACAzWJGLAAAAEpKeUOFyqrLNXpzpCDljX41oj2dbapqrdbcyGz6gxYnvtor9/QqjTxsVqxgSMcee1r7OgIyFVO896pOXz6jaDT9vIul4xsl0wxI8Zj6rn2iK2k2BrOskEJP7FaLljfWCh59QU/t3yvTlOLxG7r+6dvqyVDXps8li9hS4zykp/Y3Lr0vPrzcDlawS8daJTUFFt/RqINPPLm4mVj6TdEsK6Rjzx3SvsblMvuGr+rK++nX613bVhG169hziXPRtU90WonXNHBbPdH0M4QtK6RjT+zOGBMAANi6SMQCAACgpJTXJH5FnRlNnQ27GdNjU7JtW2U1mX/1NVbsJ1VeY2jXM8vH7nmpIn25A5aGf7uQ9rWCeuKAwoYh2+7V9XNK+Uzb0tIFSwIyH+9QqLNLkY9+pbcuLCf8LCukYy+/pO5wYHUhZkCd4Q5981ivPv75a+pZlfzbrae6TyikuC4N3NbBF3+4agMu0zyiUGiv9n30d3rrwuaThpuLbbENjv5Az3e3y1zZkWZAZrhDpm7rF9GIQo91qXtFOxlmhzqf6ZAk2XavPj7Xp5WrPgSf/YGe70wtszPcoW+maduElW0lPfXiCYUX28rWVZ0eTsRgx3s0+PP0SdbQcy8ljuk/pb9JKR8AAGxl5W17WgpaoN/vL2h5W6XuUqi/0H2ZCy/3u9sx0O/uod+pv9jc7HfJ223v9rl77Z43diSSU3PT84Up0Jas2YWlctMfY2jmriVr1sh8jAuSCUbbjinyUWoSMpmETbyeSAwmZnEmknmh7pd0YuDv9MGK2apNpql4vFd955dnmQaPvqDnuw/LNDv0nZefVM+bZ9PG0/7iD9WgPn303z/RoCTpkJ568bDCZkCh7h/qyLn0idJsbSY26+gP9P3FhGq8v0cXPv1iMTap5bGntW/x/yOXz+qjIUlNyWRory6dv7q4WdjtpfesbFdJin9+Su9dTi57sVsHj3epMxxQ+Jkf6Xv6acbkc+B4l0INcfV/flbXh6SmJily+YbinYfVkGG9X8sK6WCHmYj32hltdiW5zY4Zbo91bsfg5Z/xknfb3u3r3u2+93Lbe/me93Lbu93v5TdvDW58ZJYCZr1i8bGClbdV6i6F+tv2tKiQfZkLL/e72zHQ7+6h393h5frd7HfJ223v9rl78Z635xLrtJZVFGijLEPylZfJns281oA1Z+ve6cTs1vIa95Kx5uM/0l8/vvp7drxXH7/zWspH/63gC3q+05Rtx3TpjeVkq88XUc+pn2lQiWTiN48/qQ9WJC+vvPOaPkh+LH4xaRq98K5eVaP+9pkOyWxW0LJSZmsaRkAN6tGbP397xWsRvfmO9MrLh2UaHdr3hNRzIfW8Gjqe1vdOpjnh4dWbeOUam2V16WR3uyQp/vkv9Ys1G4JFo6+rZ/H/fdGz6olK1tED6lZA0rCunFuxxECyzMV2laT+D9cmWiOKvnlWQyf/m7rDhkLH/kTBc2+nbatQqFcf/+XqxLRP0oXIYXWHU/tFkhQ6pPYGZZz9nK3NjBluj3Vux+Dln/GSd9ve7eve7b73ctt7+Z73ctuXQr+z4BAAAABKysJUYiZsZe2OgpRXUVUho8xYKnerMcwOfefl/6zvPRta9f3QY3sTH5uPnF014zUpcvmG4rYthQ7oiJVIQvt8EUUzrE2qgeHE8Q2NyjRPJ3I+NemoyBfqW1zO12xqz3gO4XDqv1Dj7qVjNhNb6LmuxLIN8R69935fhqhzk2xXO96j0+fSH3P+0/+1GE9iZms6Ixc/STs7+Py1xThX9EvSseOHZRpGxvcCAICtjTViAQAAUFLmYrOy5y3V79mpWN+9vMur37NTkjQ7NJN3WU5bO6szsczA0zra2a7w4z/Sj5V4feVH2EfUrCNHu1ILa2pct65gsEstrc1q2t+ogBmQKTORgLTTH2/bMcUGUr/v80U0FJdkrnNe/T26cO1u6gsDt1O/l0NsLY2LbdD7RUE2tVrVruuVGflCfSOH1WkGFGiVFE09JD7Up7RTWs9dVX93u8JrZhBbVpf2hRLt3Hc5w3sBAMCWRiIWAAAAJcVesDUzOK2dbTtVXlmm+dnVG2L5A35VBapV6a+UJNU01WhhvlEL0wsavTmSUl6g4wFZs9aWSMSulVhm4PWlZQYaOp/Wkfdf0/kVx5jhI+oOZy5jbfIy7cZWkuLxDBnYQhj+Qj1ZbDyVS2yWFVLTYvI3Y9IzD9mWmZgFvPrcMiWtJcnnO6vTF7sUfjyg0P4npQuLyxMkN2XrTz/DGQAAbH0kYgEAAFByxq+OqqmtVbse261bF79a9ZoZCmjXwdalrwPtjQq0N2py6H5KIrZ+z07VtdRp7MqIbMvBRKPDljZ5UkBNIa3K+8X7T+nCtfXevbwRVXJjK9uOqf/zszp9+fbScgBW8AW98vJhNTh0Dhsp5dgKbak/Qwd0xDqjHp9Px/YnlnXIZ5MuAABQ2kjEAgAAoOTMDs1o+takmh/ZpbFboxofWN5Y4c6VAQ1dH0p5j71mvc2K6goFu0JamFrQxDV3NyEqtFXLAQzf3ni2qc8nywrpu8cSyb6Ri79atUmW2zYT28o2SDcrdTOyL3O3AotZ4c3MxvVF313ctCuxPMH5c8llCfLbpAsAAJQ2fsQDAACgJI30DGthckGhp9pV21y79P352QXNTsyk/JubnFs6pqK6QuGn96q8qlzxc0Oy56x0VaRlzUuTv7c2/Ddzp3gzbJc25lJMQ4u5wcHhuCSpoeOQglY257c2eZipDjdsLralNuh8OmXjq83KqszkMgLJxOkmJDftCu1/cmnTMTbpAgBge+OnPAAAAErSwvSCYqfvSpa099v71HxglwzfxonC+t312v/sI/IH/BrpGdbMnemc6rVmbMU/X9jw38SNwiT+1o3FCunIs4n1YSWtStRFLt9Q3LZlmEf0/HPtad8fPPqCjgSTcd5WbHHlhsRszxX1BF/Q853r7LbluM3FFnn/rPptW4bRoe+8/GRKQtqyQgoGM/RTQ6NaNlNmsEsnu5Ozd/NInJ67qn7blkIH9FSjuWKTLgAAsF2xNAEAAABK1tzIrO7946ACf9iktiMPqelAs4Z772n0yxFNjUwtHVdRXaH6PTsVaH9Ada11Wpha0PCnd3JOwrrNfPxH+uvH078W7z+l997vkxYTf77ou3rv4l59//GAzMd/pL/qjCkSiS2XFWpXg+K69Ebia58voiu9cXUuHv/jjl7F45IUUDgcULy/V/FQuyvrsG42Np/vrN786IBe6W6XGX5WJ/9rl0YiMSXmtAZkhkzp4mv6RXTFEgPnrqq/u11ho0Pf+ckPtS8uyRzW9Z+/rR6fL1HmG8165eXDacsMhxNJcTves6o/cj/n5KZdHQqHJTt+Q1ciYqoMAADbGIlYAAAAlLSFyXnd+x+Dqv5ajeoe3and32jT7m+0SZLmpuZVvqNsaaasNbugsSsjmrg2ltNyBKUsHu9V3/lP9MGFSErSL3rqZ/r7oR/o+e52mcZyklCSbDumkcjZVcm9yPu/0keNL6k7HJBpdshcnGga//yXevXyIb0SSj+zthg2G5vvwut6daBLJ188obAZkBkOKDl/1rZjiqxZTnhV8tbsUNiUbFu6vvKY6Lt69Y27mcu8eFan3z+jaJ7LCCQ37TINQ5Hzb+ddHgAAKG0kYgEAAFDybNvWZGRCk5EJle+sUNXuapXXVMioMDRnJZK1M3enNXN3Wire0q0F4fNF9MGr/0UfbPL90Quv6xcXJCsYUmjpu32KRn3JClbV1fPmz3TeCim0eHB0cbaoTxH94q/eTfOes3rrr84mv0obQ8+b/0U9eZ7XZmJbem/0rN569aysFe9d1QZrj19ss2AwtFzPmnI3LDNdHFm0VTps0gUAgDeQiAUAAMCWMj86p4nRuY0P9BhfNKLo8lfrH+uLKBpd9xDX5BPb6vdunNWMrlyyoEBl5uLY8cRsWLv/Kpt0AQDgAfy0BwAAAIAis6wu7Qslljq49OkZt8MBAABFQCIWAAAAAIrIskL67k9OKGwYUuSsPsiwhAIAANheWJoAAAAAAIrAOvoD/e0zHUtf2/EevfnGmbTrzQIAgO2HRCwAAAAAFEk8Hkv8t/esTr9/RlGSsAAAeAaJWAAAAAAoAt+F1/WLCyu/QRIWAAAv4Sc/AAAAAAAAADiMRCwAAAAAAAAAOIxELAAAAAAAAAA4jEQsAAAAAAAAADiMzboAAADgitraWhmG4XYYwJZXW1vrdggAACALJGIBAADgimAw6HYIWMdM5aQmdg6pcYh+AgAAKAQSsQAAACi6Tz/7jdshYAN/8CcPqKzSp9/0nNXC1ILb4SAL8Vjc7RAAAMA6SMQCAACg6AYGBt0OAetoeKhOZVXNkqTWP6zV529ddzkiAACArY/NugAAAFCSAma9Z+tv29PiWt0Bs16P/vGDS1/XNe9QZW1l0WNwi1f7HQAAOI9ELAAAAIAlta3VqqxZ/cG5r78YcikaAACA7YNELAAAAIAlXzvelPI9N2bFAgAAbDckYgEAAABISqwNW16d/hGBWbEAAAD5IRELAAAAQJJWrQ27FrNiAQAA8mMcOnTIdjsI5M/v92tyctLtMFBk9Ls30e/eRL97F33vTW70e21rtTqe2bXuMZPDc/r3924VKSLv4X73Jvrdu+h7b6LfvSnZ7+Wx+FjBCg2Y9SpkeVul7lKo3+/3e7Lt3W53t2Og391Dv7vDy/W72e+St9ve7XPnnvdm/W70+8P/sW3DY/yNFZqYm9bsxKyjsXj1nvfy/e52DF7t9ySvtr3b173bfe/ltvfyPe/lti+FfmdpAgAAAMDjGh6qU2VNeVbHslYsAADA5pCIBQAAADxuvbVh12KtWAAAgM0hEQsAAAB4WC6zYZOYFQsAAJA7ErEAAACAh+UyGzaJWbEAAAC5IxELAAAAeNRmZsMmMSsWAAAgNyRiAQAAAI/azGzYJGbFAgAA5IZELAAAAOBB+cyGTWJWLAAAQPZIxAIAAAAelM9s2CRmxQIAAGSPRCwAAADgMYWYDZvErFgAAIDsFOa3LwAAAABbxsiX4/qn//Ny2tcCZr1i8TEdeOYhtT7coIF/G9HVD78scoQAAADbDzNiAQAAAAAAAMBhJGIBAAAAAAAAwGEkYgEAAAAAAADAYSRiAQAAAAAAAMBhJGIBAAAAAAAAwGEkYgEAAAAAAADAYSRiAQAAAAAAAMBhJGIBAAAAAAAAwGEkYgEAAAAAAADAYSRiAQAAAKTwGYn/lpUZ7gYCAACwTZCIBQAAAJBiYX5BklRVV+5yJAAAANsDiVgAAAAAKXbUVEiyVd1Q6XYoAAAA2wKJWAAAAAAp6nZVy16wVV7NjFgAAIBCIBELAAAAYJUddeWqrKnQ7MS8DMNQXUuV2yEBAABseSRiAQAAAKzSerBRkjRy+74k6WvHWtwMBwAAYFsgEQsAAABgSW1LlUJHmxX7/biu//qWrDlLTe31CjxU63ZoAAAAWxqJWAAAAACSpAp/uYLHmzQ7Oa/fffiV5uct9f12UJL06HNBVfhZLxYAAGCzSMQCAAAAkK/M0CPPPKiK6jL92wdfaW5yXpJ065/vaXZiXuU7yvToHz8kX5nhcqQAAABbE3/SBgAAADzMb+7Qnq8HtOvhgCr9ZRq8NKL4zYml1y1L6jszoAPdD8oM1urJ/+NR3b0eV7RnSJPxGRcjBwAA2FpIxAIAAAAe4vNJVQ1VqttVrT2PBdTwYI0kaeSr+7rxyT3N3bVT3jPwu7gWFmyFjzXL31il1kcDan00oPvDM7p9OaZ7faOaGpkt9qkAAABsKSRigW0o+YBVWVPmWB21dVWyahccK79U6y6FGKofqFCDr8aVut1uey/X72a/S95ue7fPnXvem/UXqt/LK8tU3VApf0Olqswd8jfsUHVD5dLrs5ML+urikG79S2xpdmvArE9b1t1rI7p7bUR+c4e+drhJzQdM1TTu0N7jrdp7vFWypbnpeU2PzWliaFpjA5OaGpmWZeUet1fveS/f727H4NV+T/Jq27t93TvR97P3FzS9ybEXgPOMQ4cOpf7JG1uO3+/X5OSk22GgyGpq/fI12KpqqNCOunJV1leoameFKuv4GwsAAFhtdnxe06Nzmh2b08z4vKZH5nR/YFrWwuYeB3xlhuraqrTzoRpVBypVUVuush2GDIM1ZAHAbYUe81E45G+8Kdnv5bH4WMEKDZj1KmR5W6XuUqjf7/d7su3dbne3Ykiu5bb74AMq27H8sDM1Mqvx4SlN985ocmRWUyOzmp915i+89XU1Ghu/70jZpVx3KcTQ9EBAQ/dirtTtdtt7uX43+13ydtu7fe7c896sv5D9nuvsqFx+t7l3b1T6YvX3qhsqZT5Uq9qmKlXVVqiyrkI7ahP/kmYm5nTn3+KKRcfTxuXVe97L97vbMXi135O82vZuX/eF7vt0n4Kob6teen12ckF3/i229CkILz/Lu1m/m/kbydttXwr9zrQ5YAtp3t+gtq83Lq3lNnV3Tv2fD2r8zlTRP37iM8s0EnfnlxY36y6FGGqtOo3c8mbbe7l+N/td8nbbu33u3PPerN/tez4fUyOzmhpJTSwkl05qaKtR8HCTHjrcrKY/aFD0wh3d/tf46mM9es97+X53Owav9nuSV9ve7eu+GH2/dl3wBzub9GBnk0a+uq+RG5OuT2wCvIZELLBF7PnfHtC+p3evWsst4Dd151Z84zcDAAC4zLKkydi0JmPTGvzXYbU8bCp4dJf2f+dBGRVluvXP99wOEQC2nZVj752r8aVPV+56OLFZ48TklO5eG3E7TMAzfG4HAGBjFf5ytXft0sTdaZ375b/pxmcDSxtqAAAAbDWWJd3+17h63rimibvTau/apQo/c0QAwGmT8Rnd+GxA5/+vq5qfttT29Ua3QwI8hUQssAW0f6tVZTt8uv4/b7K4OgAA2DYsS7r+P2+qbIdP7d9qdTscAPCMhTlL8d4JNbTVyG/ucDscwDNIxAIlbuduv1ofadDA70Y0epudFQEAwPYyentSA78bUesjDdq52+92OADgGcPXxiVJe74ecDkSwDtIxAIlzPAZ2vdHbVqYsdT3mwG3wwEAAHBE328GtDBjad8ftcnwGW6HAwCeMD06p5Gb97Xr4YB8ZYy9QDGQiAVKWOChWtU2V6n/3B3NTc67HQ4AAIAj5ibn1X/ujmqbqxR4qNbtcADAM25fianSX6YGxl6gKEjEAiXM35hYqycWGXc5EgAAAGclf99J/v4DAHDe2EBi+buaAGMvUAwkYoES5m+olG3ZmhqddTsUAAAAR02Nzsq2bPkbKt0OBQA8g7EXKC4SsUAJqw7s0PTYnGzLdjsUAAAAR9mWremxOVUzKwsAioaxFyguErFACaveuUNTozNuhwEAAFAUU6Mzqt5JMgAAiomxFygeErFAiTJ8hqrqKzQVIxELAAC8YSo2o6r6Chk+du8GgGJh7AWKh0QsUKKqd1bK8BmaHGF9WAAA4A2TI7MyfIZ21JW7HQoAeEZy7K3eyTqxgNNIxAIlqqo+8UNwmo26AACARyR/76moJRELAMWSHHuTz6AAnEMiFihVi3fnwgIbdQEAAG9Y+r2HT8cCQNEsjb1kiADHcZsBAAAAAAAAgMNIxAIAAAAAAACAw0jEAgAAAAAAAIDDSMQCAAAAAAAAgMNIxAIAAAAAAACAw0jEAgAAAAAAAIDDSMQCAAAAAAAAgMNIxAIAAAAAAACAw0jEAgAAAAAAAIDDSMQCAAAAAAAAgMNIxAIAAAAAAACAw0jEAgAAAAAAAIDDSMQCAAAAAAAAgMNIxAIAAAAAAACAw4xDhw7ZbgeB/Pn9fk1OTrodBgqorq1a7d/epb5f39H4zam0x9Dv3kS/exP97l30vTd5td+z+f1nO/Nqv3sd/e5dpdL3Xh97i61U+h3Flez38lh8rGCFBsx6FbK8rVJ3KdTv9/s92fZut7ujMTQk/kYyPjGpWHw87SH0u3vcjMGr/e71+t3sd8nbbe/2uXPPe7N+z/Z7w/IcES+ev2f7vQRi8Gq/J3m17d2+7t3u+6Xzz+LZ07G6XeLle97LbV8K/c7SBAAAAAAAAADgMBKxAAAAAAAAAOAwErEAAAAAAAAA4DASsQAAAAAAAADgMBKxAAAAAAAAAOAwErEAAAAAAAAA4DASsQAAAAAAAADgMBKxAAAAAAAAAOCwcrcDAAAAgPP+/M/+1O0QgA0tlM9pamxURw+1q+vRCrfDATb06We/0cDAoGv1M7ajEJJj73/4w3aVHWXsReG4PUaWIhKxAAAAHhGNRjUxMeF2GEAW7rgdALCu2tpaBYNBt8OQxNiOQmLsRWGU0hhZakjEAgAAeMTExITi8bjbYQDAlmcYhtshLGFsB1BqSmmMLDWsEQsAAAAAAAAADiMRCwAAAAAAAAAOIxELAAAAAAAAAA4jEQsAAAAAAAAADiMRCwAAAAAAAAAOIxELAAAAAAAAAA4jEQsAAAAAAAAADit3OwAAAACUOEOqDOxQWXWZjEqf7AVbC5MLmovNyF6w3Y4OALAZjO0AUHQkYgEAAJBWWU256h6uV1WbX2XVqb822vOWZganNX51VLNDMy5ECADIFWM7ALiHRCwAAABWM6T6x0zV7q+TfIYmBsY0enlUUyNTmpuaU0VVuSprd6iutV4NDzaoqa1V07cmNdIzrIXpBbejBwCkw9gOAK4jEQsAAIAlRoWhxiebtaOlWqNfjerWpS81PTK96pjEV+Ma7r2n8soy7Xpst5of2aUHvt2q4c/uaH50zo3QXWFZIYXUp6jPO1svWFZIoSd2q0XS4LkzOZ27W+2VT8zAdsDYnl6pjuF5j7OMd0DJIhELAACABENqfLJZlbuqdPvSTQ1eGdjwLfOzC7p18SuN3RpV6Kl2NR7fpXu/HtDCVGnPngoe7VKLJA2cUU90/YfUYLBLLa2px1rBF/TKy4dlGob6P/yp3rrglYfd3Xqq+4RCiuvSwBlFo9m9y932yhzz0rWQ4rYGz5VegiZbmc9rGUkaj2BsT6u0x/DNjbP5vzcVY+TWPD+ULhKxAAAAkJT4yOqOluqsH9RXGh8YU/8/3dDeb+9T4FvNuvePg7Lt7DZ78VVKsg1Zc8XZHMayQjp47IQ6TUPxz2+rJxpZ9/iW4yfUHU5zbGujTMOQJJlN7ZLWL8fzSrC9Vl4LaWvSnJsAACAASURBVD0jxftP6b03ttbD+IbnJcm2YwVJ0qD0MbZnUIJjUqlhjGSMROGRiAUAAIDKaspVu79Oo1+Npjyo73q0RU37m1PeMxmfVP8nvUtfT9yd0K2LN9V25CFVf61Gk5GJdeusO1Cm+kd9mr9vyyiTyqoSD0S3frU1Pv7qu/C6/l4v6Kmmuzr9fp+0hR5C3VDq7WXHexWJL39tmu0yTUNm+Fmd/Emz3vz521sq0ZC09ryWDWuoyLFYwS6dfLFLId3Ysu251TC2Z1aoMckr1zVjpPO8ci15HYlYAAAAqO7hesln6NalL1Nemx2f0fjguMoqytQQNHV/6L6mR6c0O566m/bQ9btqOtCs2kd2bviwXtOeeMC48+F8Iob9PtUfLCvA2RRP9MK7eksquaRiqSrl9hrp/URvnVo9Iy747E/1/ccDUsNeHQxpS86MSndey4rcD60HFDYDstMmPeAExvb1FWRM8sh1zRhZBB65lryu9H4DAgAAQFEZhqGqNr/Gb4+lbN4iSfFoXNHfRnT7n29KkmJ9w4r+NqKBf7mdcqxt2br37/dUUV+hiobKzHX6pLJqyZpd/sjq1IBVgLMBCify/ln127YMI6BAq9vRALlhbIfTGCOB3DEjFgAAwOPKGypUVl2u0ZsjBSlv9KsR7elsU1VrteZGZtMftDg5yl6578sWe1bPZmdqKxjSscee1r6OgEzFFO+9qtOXzyi6ZhOZtWVF1K5jzz2tfY2Srn2ity5EUstslEwzIMVj6rv2ia6k2TQll3KXjz+kp/Y3LpUdH04f80rBoy/oqf17ZZpSPH5D1z99O2WjnKzaK4f6c2kHJ2Xbx5uJO12bZdPWeZ9Ljm26Ub9ZwS4da5XUFFh8R6MOPvHk4kY56Tf8sayQjj13SPsal8vsG76qK++vd+1kvtZPa/fiJk6Z1w61rJCOPbE7Y0xbDWP7+jYak6xgl7772AEFkvd2fFixa1/og8VxM9frOt8xK3j0BR3c36h2M6B4/MaqWHI+9xzHrXwwRjJGYjUSsQAAAB5XXpP4lXBmNHXG1GZMj03Jtm2V1WT+VdNYsT9GeY2hXc8sH7vnpYr05Q5YGv5tKe3Yvf7O1Esf2VwSkPl4h0KdXYp89Ks1SdCVZUlPvXhC4cVNRGxdlS5EEg9AL7+k7nBgVT0yA+oMd+ibx3r18c9fU8+qB6ONy12K9+gP9Hx3+9LmNcmyzXCHTN3WL9I+mLXrxCs/XLXhiWkeUTh8RPtSdiHfoL2yrH9z7bBJTxxQ2DBk2726fk4pnyfMpY/z77/bOvhialuHQnu176O/y2vH93zaNJt+Cz3Wpe4V7WSYHep8pkOSZNu9+vhcn1ZeDsFnf6DnO1PL7Ax36Jtp7x9po2v99HAiBjveo8Gfp08ghJ57KXFM/yn9zSYTXKWEsX0jmcekIyd/uuZ+CMg0OxQKNWroXOJeyPa6zn/MyjzOfvNYT85rieb2s2kDjJGMkchZedueloIW6Pf7C1reVqm7FOovdF/mwsv97lQM/sbER34eaDTln63JeBz97h43Y/Bqv3u9fjf7XfJ227t97k73vbEj8cv23PR8YQq0JWt2Yanc9McYmrlryZrNvGPxVpZ8+LTt2NIDUWL2SuIhJtT9kk4M/J0+SDNLJ3C8S6GGuPo/P6vrQ1JT0/JrTaapeLxXfeeXZ+AEj76g57sPyzQ79J2Xn1TPm2fTxrReudbRH+j7iw998f4eXfj0Cw0uvtby2NPal+E821/8oRrUp4/++yeLx+9eergLdf9QR85llxDNtf582iFbyYfnRB+mnsdm+jifuFPb+pCeevGwwmYgp7bOZDOxZdtvkctn9dGQpKbkg36vLp2/urgRzu2l96xsV0mKf35K711Ofkx+tw4e71JnOKDwMz/S97Q20b8s3bUeuXxD8c7DasiwlqVlhXSww0zEe+2MNrOKXz5jtRPjPGP75lhHf6Du8Op7W5KCwS4dPL68uVku13Uh7v2LH36i5H5rLY8lxhnDPKKTL9/V32Q53uXzsymlLMZIxsgcrRznvPp7fdueFpXfvDW48ZFZCpj1isXHClbeVqm7FOpv29OiQvZlLrzc707GEKisU5sadG84rtit8bTH0O/ucTMGr/a71+t3s98lb7e92+dejL635xJr+ZVVFGgzFUPylZfJns38eVRrzta904kZUOU17j2wN3S+pB93rH+MaeYWnxV8Qc93mrLtmC69sfyQ6fNF1HPqZxpU4iHqm8ef1AdrHtoMI6BQqFcf/2X6B8Yr77ymD5IzUxdfj154V6+qUX/7TIdkNitoWSkzWdYr17K6dLK7XZIU//yX+sWaTUui0dfVk+Y8DSOgBq2djRXRm+8065WXD8s0OrTvCannwgbttYn6N9sO6zEf/5H++vHV37Pjvfr4nddSl1nYZB/n03/p21obtnVDx9P63sk0Jzy8eoOaXGPLpd980bPqiUrW0QPqVkDSsK6s/Ch4sszFdpWk/pQZ1RFF3zyroZP/Td1hQ6Fjf6LgudSZgJmudZ+kC5HD6g6nv/cUOqT2BmWc2ZeNzY7VTo3zXh7b83Fsf+K6Hrm4elZhNHpW0Te1dL1me11Led77DanXczS6PM4o1KUTwTMbJk/z+dkkMUYyRhZujPTq7/XJsZ4FHQAAADxuYSoxW6qydkdByquoqpBRZiyVW8oMIyDTXP9frkKP7U18XDByNu2DceTyDcVtWwod0BErNaExcvGTtElYny+iaIZ12zQwnCizoVGZ5tVlKjf0XFfio6XxHr33ft+657ZW5Hyaj8RGvlBfDktS5lp/vu2QC8Ps0Hde/s/63rOh1TFvoo/zjXujtjab2jOeQzic+i/UuHvpmM3Els91k0myXe14j06fS3/M+U//12I8iVlb6WS61s9fW4wzzb137PhhmYaR8b1bkZfH9kJoWHGP5MOpsTvXjbLy/dmUDmNk5tgYI5EJa8QCAAB43FxsVva8pfo9OxXru5d3efV7dkqSZodm8i7Laas/1pdey/Efqjuc3cyulR/dG1GzjhztSj2oqXH9mIb6tNFUk2CwSy2tzWra36iAGZApM/FwZmd+T6ZyWxoX4+39IqcZpLYdU2wg9fs+X0RDcUlm8sF3/XXkNlu/tLl2yGTtjKXER2if1tHOdoUf/5F+rMTrhejjXOPOpq0znld/jy5cu5v6wkD66z7b2PLpt3RWtet6ZUa+UN/IYXWai8mnaOohGe+hc1fV392u8JrZcZbVpX2hRDv3Xd74/tsqvDy25+P8tT51hztkhJ/VX71yQB+/80nGzYtytZl7P9M16fOd1fXICYXDG4+1BfnZxBiZU2yMkciERCwAAIDH2Qu2ZgantbNtp8oryzQ/u3rTFH/Ar6pAtSr9ifXLa5pqtDDfqIXphbS7cQc6HpA1a22Rh/XbmWe5LNrszEozfETd4cyvp3ugzPQwmZR20w9J8fj6mcdM5VpWSE2LD6jZJIALbbP1b7YdcpH4CO3rSx+hbeh8Wkfef03nVxyTax8XI+4Uw1+oJ4tNVXKJzenrJtsy0yWf1ruHfL6zOn2xS+HHAwrtf1K6sPjR2+SGQ/3pZ+9tVd4e2zfPd+F1/X3T4mZIZoe6/6JD31lc5/T0JneKd+Xez2AzP5vSYYxMYIxErkjEAgAAQONXR9XU1qpdj+3WrYtfrXrNDAW06+Dy5x4D7Y0KtDdqcuh+ysN6/Z6dqmup09iVEdlW8R8wS0m8/5QuXFvviNUbcGwkuemHbcfU//lZnb68nES2gi/olZcPqyGfgLeIYrfD0gYmCqgppFXPtLn0cSn3XynHVmhL/Rk6oCPWGfX4fEtrgm52A5pSxti+OdFTr+vV95dnfJpGYgOk0LG165BurNTur0L/bGKMZIxEbkjEAgAAQLNDM5q+NanmR3Zp7NaoxgeWNzK4c2VAQ9eHUt5jr1k/rKK6QsGukBamFjRxzd1NFd2y6mOQw7c3nmWT5cO8ZYX03WMrNpA5VZiPyea6jECh5Vq/U+2Qi830cSnEnclmYnPiusm+zN0KLGY8NjPTzBd9d3FDmsRHb8+fS37kdvMb0JQyxvbNS8747Dm1YjakeUTPP/dFysZLmTh57yc/Li5tfC849bOpUHUxRm6MMXL7oAkBAAAgSRrpGdbC5IJCT7Wrtrl26fvzswuanZhJ+Tc3Obd0TEV1hcJP71V5Vbni54Zkz2W30YckWfPS5O+tDf/N3Nkas7AGh+OSpIaOQwpmueHJxtY+WK22tDHKJizF2/l01hu0FFJu9TvXDpkslxnT0OJzb+59XPy4s7e52Jy4brIqM/kR2WRSYBOSG9KE9j+5tKHOdt6AhrE9f9ELryuZT8xtE6/87n3DCKj9sfSbTC3fC+svaZPkzM8mxkjGSOSKVgQAAIAkaWF6QbHTdyVL2vvtfWo+sEuGb+MHn/rd9dr/7CPyB/wa6RnWzJ3pnOq1ZmzFP1/Y8N/EjeInCTcjuRu0YR7R88+lf4AOHn1BR4K5nM9txTLs/GwFX9DznevsRLKB5Z23O/Sdl59MeWi2rJCCOcXqZP3OtcNalhXSkWcTax9Kq3eZzr2Pixd37jYXW17XTYadzzcsM9ilk93JmWl5JAXOXVX/4o7tTzWaKzag2Z4Y23MTDHatmzwcGc6wwWPa6zr/e7+h8yWdCGa+FxTJbt3OQv9sYoxkjMTmsDQBAAAAlsyNzOrePw4q8IdNajvykJoONGu4955GvxzR1MjU0nEV1RWq37NTgfYHVNdap4WpBQ1/eifnB/XtyBd9V+9d3KvvPx6Q+fiP9FedMUUisaXXzVC7GhTXpTdyKNMX0ZXeuDoXy/xxR6/icUkKKBwOKN7fq3iofVNr1Pl8Z/XmRwf0Sne7zPCzOvlfuzQSiSkx7yYgM2RKF1/TLwq0a3g+9TvZDubjP9JfP57+tXj/Kb33ft/Sx3Vz7WMn487XZmPb1HWzYkfu7/zkh9oXl2QO6/rP31aPz5co841mvfLy4bRlhsOJhI8d71nVH7mfc3JDmg6Fw5Idv6ErEW3raUpeG9vXvZ8//+W6Swu0HD+h7r94VvH+XvUNX5V0QIGOdoVNI/2u8ete1/nd+7Yd08iIqc6/+Jna46vfm3i9Vx+/cSareyHfn02MkYyR23mMLCYSsQAAAFhlYXJe9/7HoKq/VqO6R3dq9zfatPsbbZKkual5le8oW5pNZc0uaOzKiCaujeX0kdXtLnrqZ/r7oeQOy8sPR9Lig3XkbM4PNZH3f6WPGl9Sdzgg0+yQmdyR+fNf6tXLh/RKKMPHV7Pgu/C6Xh3o0skXTyhsBmSGA0rO8bHtmCKpy0gWVC71O9kOa8Xjveo7/4k+uBBJeaDNtY+LGXeuNhtbrtfNqsSE2aGwmdg1/frKY6Lv6tU37mYu8+JZnX7/zKZ2rl91zosb0piGocj53DZf2qoY27M0HJfCAZnhDnWGO5a+bcd79fE7r6lnzezTja7rfO/9vnde09Dxl9QdXn6vJMX7e/TeG7ldu4X+2cQYyRiJ3BkPBcMFW5AlYNYrFndn8W436y6F+tv2tOjmrVz2NiwcL/e7kzEEQnU69CchffF2RLHIeNpj6Hf3uBmDV/vd6/W72e+St9ve7XMvVN//+Z/9qX73u98pnpjGkZPynRWq2l2t8poKGRWGZCUe6GfuTmvm7rRU+sv7ucoKhhRa+qpP0Sw+QrpueVZIocUCow7MUl1ZfiHidap+p9shF7n0cSnFvVY+seV63QSDoQ3rcfJaXN7pvE8f/+VrOX+ENxAI6OGHH9ann/1GAwP5jdH5jPOM7c5JXqOSpEhfVomo9a7rfO/9VfdDlvGsW16BfzYVqi7GyITtPEZ69ff65FjPjFgAAACsa350ThOjcxsfiLR80Yiiy1/lX54vomh04+MKU37xZ8BkW7/T7ZCLXPq4lOJeK5/Ycr1uskliOHktHjuemOll91/17AY0jO3rW3WNZnmNrHdd53vvr3p/Aa7ZQv9sKlRdjJEJjJHbF60JAAAAAPAMy+rSvlDiY7yXPj3jdjgAUFIYI51FIhYAAAAA4AmWFdJ3f3JCYcPIerd5APAKxkjnsTQBAAAAAGBbs47+QH/7zMqNl3r0Zpa7zQPAdscYWTwkYgEAAAAA2148Hkv8t7cwu4oDwHbCGFkcJGIBAAAAANua78Lr+sWFld8gwQAASYyRxUPLAgAAAAAAAIDDSMQCAAAAAAAAgMNIxAIAAAAAAACAw0jEAgAAAAAAAIDD2KwLAADAI2pra2UYhtthAMCWV1tb63YISxjbAZSaUhojSw2JWAAAAI8IBoNuhwBsaK5yWhWzVW6HAWwZjO3OsQ1b8+UzqphjTAJQGCRiAQAAPODTz37jdgjAhnzlhtqfa9TN0yOaujfvdjjAhuKxuKv1M7Y7y9znV11bpb78bMTtUIAtye0xshSRiAUAAPCAgYFBt0MANvRgZ5PKq3yq/4MK9V+56XY4QMljbHeOr9yn8HP7tKO2QlNl4xq5ed/tkABsA2zWBQAAgLQCZj31u6RtT4trdbt13mUVPgUPNyViCNVpZ6vflTjod/e4GUMpnL+bvNr269W9+7GAdtRWSJJCx3Y5Ur+b97xUum2/3ev3cr+DRCwAAACAErD7642q9C9/YC/0hDOJDwDYiK98+Q9DkmQGa9XQVuNiRAC2CxKxAAAAAFy1cjZskpuzYgF428rZsElOzYoF4C0kYgEAAAC4au1s2CRmxQIotrWzYZOYFQugEEjEAgAAAHBNutmwScyKBVBs6WbDJjErFkC+SMQCAAAAcE2m2bBJzIoFUCyZZsMmMSsWQL5IxAIAAABwxXqzYZOYFQugWNabDZvErFgA+TAOHTpkux0E8uf3+zU5Oel2GCigurZqtX97l/p+fUfjN6fSHkO/exP97k30u3fR997klX5verRee44ENjxu/OaU+n59pwgRucsr/Y7V6PfSYJQZevhP21ThL9vw2N5/GNTE4HTeddL33kS/e1Oy38tj8bGCFRow61XI8rZK3aVQv9/v92Tbu93ujsbQkPgbyfjEpGLx8bSH0O/ucTMGr/a71+t3s98lb7e92+fOPe/N+r3Q72UVPj18sC2rY+vaqrVQNa/RAecfXOl393h1rHf7Z7zk3bZfWXfbNx7IKgkrSY2P1urLq3fzrt/tvi+Vtvda/V7ud7frL4V+Z2kCAAAAAEW30dqwa7FWLACnbLQ27FqsFQtgs0jEAgAAACiqbNaGXYu1YgE4JZu1YddirVgAm0EiFgAAAEBR5TobNolZsQAKLdfZsEnMigWwGSRiAQAAABTNZmbDJjErFkChbWY2bBKzYgHkikQsAAAAgKLZ7GzYJGbFAigUo8zY9B+GJGbFAsgdiVgAAAAARZHPbNgkZsUCKJTGfXWbng2bxKxYALkgEQsAAACgKPKdDZvErFgA+fKV+7Tr6zvzLodZsQBykf9vQQAAAACQhfiX4/r//u/JjK/Xt/rV8a1W3f48rsH+WMbjDNuQYRiybduJMAF4gK/MUPSzIY2N3894THJM6v3NgMYGMo9dMxNzToQIYBsiEQsAAACgKCbuTq/7uq888YG9qdisRr7KnBwBgHzNzyxoYmBaI/HMY01yTJoYmmZMAlAQLE0AAAAAAAAAAA4jEQsAAAAAAAAADiMRCwAAAAAAAAAOIxELAAAAAAAAAA4jEQsAAAAAAAAADiMRCwAAAAAAAAAOIxELAAAAAAAAAA4jEQsAAAAAAAAADiMRCwAAAAAAAAAOIxELAAAAAAAAAA4jEQsAAAAAAAAADiMRCwAAAAAAAAAOIxELAAAAAAAAAA4jEQsAAAAAAAAADiMRCwAAAAAAAAAOIxELAAAAAAAAAA4jEQsAAAAAAAAADiMRCwAAAAAAAAAOIxELAAAAAAAAAA4jEQsAAAAAAAAADjMOHTpkux0E8uf3+zU5Oel2GCigurZqtX97l/p+fUfjN6fSHkO/exP97k30u3fR997k1X7P5vef7cyr/e519HvpcnpMou+9iX73pmS/l8fiYwUrNGDWq5DlbZW6S6F+v9/vybZ3u90djaEh8TeS8YlJxeLjaQ+h393jZgxe7Xev1+9mv0vebnu3z5173pv1e7bfG5bniHjx/D3b7yUQg1f7Pcmrbb9h3Vk8k+XD7b4v6bbfxvV7ud/drr8U+p2lCQAAAAAAAADAYSRiAQAAAAAAAMBhJGIBAAAAAAAAwGEkYgEAAAAAAADAYSRiAQAAAAAAAMBhJGIBAAAAAAAAwGEkYgEAAAAAAADAYSRiAQAAAAAAAMBhJGIBAAAAAAAAwGEkYgEAAAAAAADAYSRiAQAAAAAAAMBhJGIBAAAAAAAAwGEkYgEAAAAAAADAYSRiAQAAAAAAAMBhJGIBAAAAAAAAwGEkYgEAAAAAAADAYSRiAQAAAAAAAMBhJGIBAAAAAAAAwGEkYgEAAAAAAADAYSRiAQAAAAAAAMBhJGIBAAAAAAAAwGEkYgEAAAAAAADAYSRiAQAAAAAAAMBhJGIBAAAAAAAAwGEkYgEAAAAAAADAYSRiAQAAAAAAAMBhJGIBAAAAAAAAwGEkYgEAAAAAAADAYSRiAQAAAAAAAMBhxqFDh2y3g0D+/H6/Jicn3Q4DBVTXVq32b+9S36/vaPzmVNpj6Hdvot+9iX73Lvrem7za79n8/rOdebXfvY5+L11Oj0n0vTfR796U7PfyWHysYIUGzHoVsrytUncp1O/3+z3Z9m63u6MxNCT+RjI+MalYfDztIfS7e9yMwav97vX63ex3ydtt7/a5c897s37P9nvD8hwRL56/Z/u9BGLwar8nebXtN6w7i2eyfLjd9yXd9tu4fi/3u9v1l0K/szQBAAAAAAAAADiMRCwAAAAAAAAAOIxELAAAAAAAAAA4jEQsAAAAAAAAADiMRCwAAAAAAAAAOIxELAAAAAAAAAA4jEQsAAAAAAAAADiMRCwAAAAAAAAAOIxELAAAAAAAAAA4jEQsAAAAAAAAADiMRCwAAAAAAAAAOIxELAAAAICSMD0yq8i5O5odm3c7FAAAgIIrdzsAAAAAFM6f/9mfuh0CkL+gpCfcDgLIz6ef/UYDA4NuhwEAKCEkYgEAALaZaDSqiYkJt8MAAE+qra1VMBh0OwwAQAkiEQsAALDNTExMKB6Pux0GAHiSYRhuhwAAKFGsEQsAAAAAAAAADiMRCwAAAAAAAAAOIxELAAAAAAAAAA4jEQsAAAAAAAAADiMRCwAAAAAAAAAOIxELAAAAAAAAAA4jEQsAAAAAAAAADiMRCwAAAAAAAAAOK3c7AAAAALirdn+96h7ZKd+OsnWPmx2a0eg/xzR7b6ZIkQEAAADbB4lYAAAAD6t8YId2fiMgSbo/dF8jX8Y1fOOe5qfnZBiGKmoq1fpYq+ofalBl0w41/e+tmvr9fcXODbkcOQAAALC1kIgFAADwKH+4VubhRk0O3dfNS19pYnB81eu2bWt2YkbRc7+Xr8en5kd2adejrar+Wo3KvohpYXLBpci3P8sK6dhzh7SvsVGSdP3T19QT9cmyQgqpT1Hf9lxhzLJCCj2xWy2SBs+dyek883kvAABAMZCIBQAA8CB/uFbm0QckSdc/vCrbttc93lqwNHh5QPG+YYX/aK+a/kOr7n58W9aMVYxwCyaRrDukg/sbFVjx/djwVV25fEbRqPvJOyv4gl55+bBMw1j+5jXpvJa/3//hT/XWBfdjLbzdeqr7hEKK69LAGUWjxXpvquDRLrWkfeW2Bs9t3WR45vNaRiIbAABnkIgFAADwmMoHdsg83CjZUvRsZMMk7Eoz92d1/R+u6tB/+qYav7VL9z4ZlG1l935fpSTbkDWXfX2FYlkhHXv5JXWHA2lfD4c79M3OLl164+/0gYvJWMsK6bsvJpKtdrxHH7/zhQaTL7Y2LiVnzaZ2SRG3wtz2LCukg8dOqNM00h/wjBTvP6X33thaCcsNz0uSbccKksgGAACpSMQCAAB4SO2+eu38ZkD3703o3//h2qokbFVDlR5+/mDKe8YHxnTj19eXvrbmLV3/4Kr2/fEBtfzJg7rz/95cd2Zs3YEy1T/q0/x9W0aZVFaVSALd+tVcAc8sM8vq0smfnFB4Mflkx3t1qfeqhpaWuW3Wvv17FQoVJZz1hQ6pvWExGfbO2+pZSgr75Iu+rr/XC3qq6a5Ov98nbaEE4FZmx3sViS9/bZrtMk1DZvhZnfxJs978+dtbKhmbtPa8lg2r2CtAW8EunXyxSyHd2LLtCQBANsrb9mz0wZTc+P3+gpa3VeouhfoL3Ze58HK/OxWDv7FSkvRAoyn/bE3G4+h397gZg1f73ev1u9nvkrfb3u1zL2Tf1z3aIEm6dfFmykxY25JmJ2ZklPlUUV0he8HS3NSc5iZTE6b3700oHo3J/FpAtft3auxf0mZ0JEk17Ymkyp0P5xMx7Pep/mBZoU5pXZYV0ncXk7C2HdOlj36lDy6kziTtubC4bIEklUQOKKahiFJiiV54V29JJGGLaKT3E711avU1E3z2p/r+4wGpYa8OhrQlZ4+mO69lRb6+Wg8obAZkZx5GtrRsxnC3f8ZL3v05u17d2T6T5cPtvi/Vtt/u9Xu5392u3+1+L795a3DjI7MUMOsVi48VrLytUncp1N+2p0WF7MtceLnfnYwhUFmnNjXo3nBcsVvjaY+h393jZgxe7Xev1+9mv0vebnu3z73Qfe/b4dP9ofspG3NJ0szYtP71/7ksf8Cv/d99RJPDk7r+4dWMZd25MiDzawFVP+TPmIg1fFJZtWTNLid9pwasoiVij738Q3Umk7AbLDvg80UUdTsLu7j8QA6rRcAFkffPqr/zhMJGQIFWSVswEYvi2WgMd/tnvOTdn7Mb1Z3NM1k+3O77Um777Vy/l/vd7fpLod9ZmgAAAMBjRr8szLSzyeFJzU7MqrKuMvNBi/lWe2HF5zfYWAAAIABJREFU94q0v5cVfEFHF5cbiHy0+bVfLSukY88d+v/Zu/fgts7z3vc/gBeRFEkRoCiJkmwaIFVdEqmyTV0oRtF21camt+Rb6mTa6XEdNWOfOd2d1E0n05lOmybpTNPMdnNyztm7Ex9vVcdz9uklk8SuXMvZjWrLCiUxllxb2o6kiCQMyxIpUcSiRIp3Lpw/cCFIACQAYnEBxPczo7EFLKz3wfuuhQU8etb7amNtrVwut2QE1NV/URdeSzw/aGhBsLVao+lFjxp2P6l9mzbI5ZIM44ouvxU77YBkNnjUUr9WqovMYetW3Z692iVJuq6OM76E+41/z6167KHNcrvcchkBdV06rgunuuTz7FVL/fS+4tqd9fhc7yXR4z41quXx/dpYK+nScb0yu41toeei/ReOK5Vb0Bt2P6mtm2rV6HLLMK4ocOn9hFXNqYjG0uSWSwEZnRd1wqJF2tJtK51+yuQYy8p7SXMMI4vj7ds0fe4Y/dP9YDa0ho7L6HFfq6179oYXE0u8KNpCz8fZx+oJhZ5Tz3V1+BMfV6bpUcuetUljAgAgVSRiAQAACsytK9mbAbL/Sp/q71+X9HlHzJpAxcsdWv3o9NfPdU+XJHzNaI+p/p9NJXwuHZ5tG8LVpZ26fEoZ3W3dcPDLeqK5MbpIliTJ5VZzeHEv37EfzEg6hqzVvrYD8sjQuZ7r2vrUczMWR3K5dsnj2aCNx76tV86Eg6rfr7ZHm6LbOBxuNT96UJIUNDrUe6pLvhn7nbmYUsLFyCJxtnTqXKdbzTvc0X1FE0nhduMeT/heYtuMfVza91TMHLy6KIUTxwkXSIuJ680XX1JH0qRWow68EN93Xu8uPdjSkfZcotHpBKLccu1okifpOM5hz2Z55zi20mkrs37K4BjLwELGsGH3l/VEW/y54/I2yaXr+p7fJ8+2VrXF9JPD1aTm8HkQDHbqzVNdM4qNF34+xh+rJ/pDMQSNDvW+mDjJ6nn86dA23Uf1jQz/EQAAAIlELAAAQOFwSMGpoCbHJrO2y4mReRbcCjo0dtOUOZ58lXarrKl1hf7Hd3GOZF9ysck0492jevX89fAza7X1oVY1e93yPvq8ntHXkia7Gp96TjXq0rH/dlyhmxC3a99TO+V1ueVpe067ToWTWD3HdeyNi1JdOCkUDOjcsfbwoknXQ8mhOSqJWw49pzZvaAoG39l2nYjEWr9dT7TtVPMO6/rf/VCrPDWGut9t1+U+qa5u+rk6l0uG0amu09PVkw27n9QTbTvlcjXpkUN71XGkPeF+I3139o3jutATemzNtlBCzOHapWcP3dQ3krx2tshYBoOBaLIuVFkZ2p+n7Wkd6EmtajqSYAztKz4JmUlb2eineY+xDGUSm7n7y/pSOKFqdHfozFvvK3IT7ppt+7Ux/P++8+061qfp497o1LnTF6PHfeyNu9k4HxMdq77zV2Q071RNkvl+TdOjrU2hzxLfpZPKkUmkAQB5ikQsAABAoQhKDqdDDqdDwansTELqLJo7KWFOBHXrRKi6tXj54iVjTdOjunAedqD/+twbJ3p9w5N6ojm0g+43Zid2fPIfaVffs3+lNq9DnpbPq+FUfHWmw+FWjWZXbvp05EfSC4d2yuVo0sY9oYXCnH6fOvw+mbs3q01uSQH1nTqZUgJt9hQMM2L1+/Tdnkh72e9/h8Mtj6dTb/5Z4mTfhR+9pNcjt3uHn/ef+bG+q1p989EmybVKDaaZuO9q4vfr939HvQon5DytOtBwct7kaWQsZ88T7HT61HF0en8PPrRXrydIdrp2PK+/2DHzsaDRqTd/9FLcrf+ZtrWgfkrxGJutpmm/nnk2QYf1z1zEK93YTLNVz7Y1SpKMd7+v781aEMzvf1kd4f93+tvV4VfMcd+vC7HTbkT2maXzMdGx6pR0xrdTbd4kx4BnuxprtKDKegAAIriMAAAAFBKHVFKeeEqATJQsz96+ckl0WgOjQydOJd7m9Fs/lxEMSuFKukR8pxPcPu97X10Dof911TVaHqvT/2NZeTf1wNnjCZOwTqdP/iRzbqqnP9x3tUq2bnSy/fpea1d3MChHZKGseUT6R772hElb3/kroVg8m7XLTG0CY4erSY8c+hM9c3DmwGfS1kL7KdNjzOFqktcb/8dTuza6TSaxeR5vDU3bYHTo1de6kkSdnmydj8mOqdOXwnEmOAZaHgr9I0ay1wIAkA4qYgEAAArMmq1r9fHpjxa8H2exU3WbV2etujZXxN6KPND5fvJ5SH3vq2tgp5pd4YTgrFuag8GAAj3xL3M6feozJLmyE29kCoa5Yu3tN6TZ83xmidHXpfnqOxoaWrWmfpXqNtWGFhKTKzx/b+Ltg8GAus4n3q/T2a7LvgPyeiNJxuRZ5hljqVXatbs1fqO62jljn13VGZpmYL92NzfKu+N5fUWh57PRVib9lOkxZnR36Mylm/FP9CSuIE81tlSOx3Rk63yU5jhWT11Ud1ujvLMqiE2zVRs9cx+PAACkg0QsAABAgVlxr0vOn38sc2pm5Zez2KnlK5ertLos9PfSIlWtqdLk+JRGAsNx+6lpcMtZ5NRoz8iixJ2O2ERUTe1azZWsm0sqSUZp/oSgVWKnYEg11mxKlgiMSLhgkyTDWPzkvcu7S23e5M8nS3bOFppm4OXoNAM1zfu167WXdHoBbdnST/3vqyOFUul0YrP6eFzI+TjXsep0tuvE2VZ5d7jl2bRXOhOeniCyKFt34gpnAADSRSIWAACggIz3jam0bpnqtqzWjQszsxKllaXa8Mim6N/La8q14ZFNGuy5oys/uTxjW0eRQ/XbQ7cwD3cPWR94BqJVoJ7N2mWmNt8qsieyYFMwGFD3u6EFxCK3uZsNT+qFQztVs4jxGN1HdebSXFvMXBxqPtFFnuRWnUcz8n7ptJVr/RQrl2PLtuh4xnxetGwKTevAIl0AgGwhEQsAAFBAbv97QHW/Ua81W+tl+AIaHxqLPmdOmhrsHYx7TaJq2NWfWqNlVcs03j+mkY/vWhpzpiKJFZejSbsfb1TH0dQqVmOraeeudF0rdzgLZUc16mwLqsoNz/OZ4G7ujJimR4+1hJJYA2d/MGPxp4XvO3S7uDR/v8+4Rb//+vwVoAtI1mfSlpX9tFCZxJb6uZO6xTofQ3Mp71SbNzQ9welTkWkJWKQLAJA9XE4AAAAKyPitMQ1/NKSi0iI17m+Ss3j66+D40LiuvHkp7s8n716N20/9/eukoHT7PUNK8e5pc1Ia/sic98/Yjezcjh27SFVN89M60JDaQkxSuJpWCt12nmwBp8hty5FEjQ2cTp8udIZjbdquhgSxxs6xGSey4FKkqnO28HtM3+yk2EzRRa2ScDjcatyWZCGzaL/PPS1CRHQsk/RPpqbfQ0B9vkzbWlg/WSuz2FI6d9K0WOdjZNEuz6a90UXHWKQLAJBNXFEAAAAKjHH6lnpf+0SlpaXa/jsPavnKypRe5yhyaM2vrtX9v9us4StDuvb3H2m8bzTlds2xoIx3p+b9M3Qle8my04dfV3cwKIfDrQcP/YmeOdiaNFm56+CT2hVO1vpeaw+/rkmPHNob9xqzoVXPtkWqBe1N1PjOX5ERDMrh2qUnHp+ZvDRNj1oOPadmV5Jknu+mDIUSnw8+tHfWa6ffY/quKzAQ+r9QFWPMfhue1BPN869Ulih5Htvv8qU2b+dc/RPRsHt67OcTOlZC88NKM8c//bYW3k/WySy2ec8d06OGZH0drsxOe5/ZOh9PXVR3MCh5NmtfrStmkS4AALKDqQkAAAAK0NTdSd18s0e1n12ljQc2y/AFdOPDXg3fip9mwFnsVM19LtX/6jotq1omBaWBs/02RJ0+p7NdRw5Lzz51QF6XW94dB+XdcVBBI6CByEY1kdXfAzp3PvZ1q/TCoZ1yeQ/q2W+1asAXUKguzy2vN5SECxodevW1rgXd0r5QTv+P9erZDfrSDrdcO57X15sC8hkBSZLL06gaGeruVjTmGa+NWaTI4T2or7+wWT5DktxyeVyq8XWp29OoRMWyc8YUrtRtDsf0laZOGeH9er1uGd2dMjyNSecXDQYDGhhwqfn3vqNGY+ZrQ8936s3DJ1Pq97j+aQ7I5wtEn4/00bnDiV/v2vG8/mJH4ueM7qMzxj/dthbaT1bKNDans11Hjm3WC22NCc8dl8clnX1J3/PHTDFw6qK62xrldTTpka8+p42GJFe/Lr/4Q3U4nYt2Pk6fD03yeqWgcUUXfKJ8CQCQNVxSAAAACpQ5NqVbx3tlTphyedzadGCLPv2bv6r67etUu2GlVm1erbUPrte237pf933GG50Ttu+n6SxpZD+nv11HXnxJx97tDN+GLzlcbrkif8JJ2AFfeyjpEn3dj/Xdw6+r2whV1Lq8TfJ6m+T1usOLFx3VkRd/KH8O3LbsP/od/V34/Tlc7nCcTaoZ6NKbh7+tE5G8uXEzLl7/0e/oWHcoWehwTb9H+V7XkcMXM47J99oPovt1xezXePf7+u5b8yfyu370ko51B2a8VpKM7g4d+bOX0qp69B/9jv7ujXD/OKb7x+ttUo2MuLGfj2F06uwb39f3jrQn7M902lpoP1kp09icZ15Oeu7UyJDRN2t7Z7uOHOsKH7+hbT01tTO3WaTzMVLVLEm+07lxfgMAlg7HvQ3e7EzCJcntqlbAuJOt3eVN27nQ/vp1a/TJNXt+FBXyuFsZg9tTpe2f9+j9H/oU8MUvnCIx7nayM4ZCHfdCb9/OcZcKu+/tfu/pjv1v/9YX9OGHH8oIla6lxLnMqcpN1Sq/d7mKq0ring9OBTXeN6q7XUMa8efmwlzpME2PPLElnr6ueZMtM1/TJX8Kt8TbpaEhEuh0nA3hW+mD3Uf1jSPtCV834z2m0Cepit2v35/+4k3Zjsts8MRU+Fo7lum0tdB+stJCYkv33Ikcv3O1Y+X5aDY8qRcO7VSNuvRmmgn/CLfbrS1btuitt99RT8/8n992X+Olwr3Oztd2Kr/JFsLusc/lvl/K7RfyuNvdfi6MO1MTAAAAFDhzzNSdDwZ054OB+TdeApxOn/z+GQ+k+ZrcTcJKsQmsUJyxi3UN9F9P+roZ7zGLVYBx/b2Q12chLqffp+lwrB3LdNpaaD9ZaSGxpXvupJLotfJ8bHloZ6hKvvsii3QBALKOKwsAAACwlO3Zr2aXg4WHgHmYZqs2ekJzFJ9766Td4QAAliAqYgEAAIA8ZpqtevZbrdLZdp04fzJ6m7ZpetTy+H7tbg6veO9r1+s5PKUCYCfT9Oixrx6Q1+FQsJtzBQBgDRKxAAAAQN5zybvjoLw7DiZ81ug+qlcPn8zqlAPAUmDu/rK++WhT9O9Bo0NHOFcAABYhEQsAAADkMaezXUcOX1fLtv3a2OSWK+Y5o/OKLp//oTr8ThJLQBKGEQj9t7NdJ147mbWF6gAAmI1ELAAAAJDnnH6fOvwvqyPxs4scDZA/nGde1vfOxD7A+QIAsA5XGQAAAAAAAACwGIlYAAAAAAAAALAYiVgAAAAAAAAAsBiJWAAAAAAAAACwGIt1AQAALDGVlZVyOBx2hwFkxOGQgkG7o0BaHJIYs6jKykq7QwAA5CgSsQAAAEtMQ0OD3SEAGbvt6lH1wGo5gty8lw8mi8c1WnFblXfq7A4FAICcRyIWAABgCXnr7XfsDgHIWFltiTyPuOT/5XX1f3jX7nCQgrWt1aqqXab3fnJZU2Om3eHkFCNg2B0CACDHkIgFAABYQnp6eu0OAcjYr7Z4JEk1v1KmS+/4NDlOYi+XVbjLtOneOjmcDpXeY6r7JJ8/AADMhft9AAAAkJDbVU37Nlm/bo1tbdv1vqvXVKjWWyVJKq0o0rrtK22Jg3FPnadllRzO0HzU9zywUiXlRYseQ7bY/XkDACgMJGIBAAAA2M6zZ/WMv9/TXKfiUn6u5KoKd5lWbVwR/XtRiVP3NDNPLAAAc+GbDQAAAABbxVbDRthZFYv5xVbDRmSjKhYAgKXMsX379qDdQWDhKioqNDw8bHcYyKKq9eVqfHi1un5yQ4OfjCTchnEvTIx7YWLcCxdjX5gKbdy9n1ut6nvK4x6fHDV18Z8+0dREYcwVmy/jvmxFiTZ/fp3kiH/uxge31XOWRarSkS/jXohS+U22EIx9YWLcC1Nk3IsDxp2s7dTtqlY295cvbedC+xUVFQXZ93b3u6Ux1IT+jWRwaFgBYzDhJoy7feyMoVDHvdDbt3PcpcLue7vfO+d8YbZfSONevaYiYRJWkorLnKq4r1T+n99ctHgY9/l9as+9CZOwkrRyS5V++bNPNDEyZWkM2Vao4x5RqH0/b9sp/CZbCLvHPqf7fgm3X8jjbnf7uTDuTE0AAAAAwDaz54adjblic8vsuWFnY65YAACS4xsNAAAAAFskmht2NuaKzS2J5oadjbliAQBIjEQsAAAAAFvMVw0bQVVsbpivGjaCqlgAABLj2wwAAACARZdKNWwEVbG5IZVq2AiqYgEAiEciFgAAAMCiS7UaNoKqWHulWg0bQVUsAADx+CYDAAAAYFGlUw0bQVWsvdKpho2gKhYAgJlIxAIAAABYVOlWw0ZQFWuPdKthI6iKBQBgJr7FAAAAAFg0mVTDRlAVa49MqmEjqIoFAGAaiVgAAAAAiybTatgIqmIXV6bVsBFUxQIAMI1vMAAAAAAWxUKqYSOoil1cC6mGjaAqFgCAkGK7AwAAAABQGNz3VWrg6t2kzxeXFamyrkwjgXGN3Z1Iul31mnI5HA4Fg0ErwkRYSXmRSpcXpzRmQ32jmhydSrpdbUOVei8NWBEmAAB5g0QsAAAAgEXx0Zmb+ujMzaTPuz1V2v55j66/a8h/4cYiRoZEJkam9O//1D3nNpEx63ynRwHf4CJFBgBAfmJqAgAAAAAAAACwGIlYAAAAAAAAALAYUxMAAAAAyAl3b43o4rGrMm/bHQkAAED2URELAAAAICeMDU6q50NDE3eTL/oEAACQr0jEAgAAAAAAAIDFmJoAAAAAQE6ocC3T6s01Gr02KRl2RwMAAJBdVMQCAAAAyAllNaXy7Fmt0mrqRQAAwNJDIhYAAAAAAAAALEYiFgAAAAAAAAAsRiIWAAAAAAAAACxGIhYAAAAAAAAALEYiFgAAAAAAAAAsRiIWAAAAAAAAACxGIhYAAAAAAAAALEYiFgAAAAAAAAAsVmx3AAAAAAAgSQHfoP7tP5+X21VtdygAAABZR0UsAAAAAAAAAFjMsX379qDdQWDhKioqNDw8bHcYyKKq9eVqfHi1un5yQ4OfjCTchnEvTIx7YWLcCxdjX5gY98KUj+OeyndWzC0fx71QWH18M/aFiXEvTJFxLw4Yd7K2U7erWtncX760nQvtV1RUFGTf293vlsZQE/o3ksGhYQWMwYSbMO72sTOGQh33Qm/fznGXCrvv7X7vnPOF2X6hjnvNPcu1pe0effKzgD7+xU1bYmDc05TCd1bLY8iCQh33iELt+3nbzuLxnYjdY5/Tfb+E2y/kcbe7/VwYd6YmAAAAAJATnMVOlVWXylHksDsUAACArCMRCwAAAAAAAAAWIxELAAAAAAAAABYjEQsAAAAAAAAAFiMRCwAAAAAAAAAWIxELAAAAAAAAABYjEQsAAAAAAAAAFiMRCwAAAAAAAAAWIxELAAAAICeMD02o50NDE8OTdocCAACQdSRiAQAAAOSEob5RXTx2VaOBCbtDAQAAyDoSsQAAAAAAAABgsWK7AwAAAAAASSopK9byumUqniiyOxQAAICsoyIWAAAAQE6oqi/XA19sVHldqd2hAAAAZB2JWAAAAAAAAACwGIlYAAAAAAAAALAYiVgAAAAAAAAAsBiJWAAAAAAAAACwGIlYAAAAAAAAALAYiVgAAAAAAAAAsBiJWAAAAAAAAACwGIlYAAAAAAAAALBYsd0BAAAAAIAkDfaM6L1/7FLpRKndoQAAAGQdFbEAAAAAcsLE6KQGrt7V5NiU3aEAAABkHYlYAAAAAAAAALAYiVgAAAAAOaGyrkyb2+5RmbvE7lAAAACyjkQsAAAAgJxQWlmi+k+5VFLBUhYAAGDpIRELAAAAAAAAABYjEQsAAAAAAAAAFiMRCwAAAAAAAAAWc2zfvj1odxBYuIqKCg0PD9sdBrKoan25Gh9era6f3NDgJyMJt2HcCxPjXpgY98LF2BemQh33VL7/LGX5OO6FPmbZkI/jXiisPr4Z+8LEuBemyLgXB4w7Wdup21WtbO4vX9rOhfYrKioKsu/t7ndLY6gJ/RvJ4NCwAsZgwk0Yd/vYGUOhjnuht2/nuEuF3fd2v3fO+cJsv2DHvWa6RqQQ339ejnsK31ktjyELCnXcIwq17+dtO4vHdyJ2j31O9/0Sbr+Qx93u9nNh3JmaAAAAAAAAAAAsRiIWAAAAAAAAACxGIhYAAABATjAnTY3eGVdwimUsAADA0kMiFgAAAEBOGLh6V6deuqShnlG7QwEAAMg6ErEAAAAAAAAAYDESsQAAAAAAAABgMRKxAAAAAHKC21OlX/vjbapaX253KAAAAFlHIhYAAAAAAAAALEYiFgAAAAAAAAAsRiIWAAAAAAAAACxGIhYAAAAAAAAALEYiFgAAAAAAAAAsRiIWAAAAAAAAACxGIhYAAAAAAAAALEYiFshRowPj8p26odGBcbtDAQAAAAAAwAIV29n4b//WF+xsHsgPDXYHAOS2t95+Rz09vXaHkbe4FgPIJVPFExq5c1u7tzeq9dMlKb+OawEAAMgHtiZiJcnv92toaMjuMAAAeaayslINDfxLRTZwLQaQe26ktBXXAgAAkE9sT8QODQ3JMAy7wwAA5BmHw2F3CEsG12IA+YprAQAAyCfMEQsAAAAAAAAAFiMRCwAAAAAAAAAWIxELAAAAAAAAABYjEQsAAAAAAAAAFiMRCwAAAAAAAAAWIxELAAAAAAAAABYjEQsAAAAAAAAAFiu2O4CMOaRS9zIVlRfJUepUcCqoqeEpTQTGFJwK2h0dAAAAAAAAAETlXSK2aHmxqrZUq2x9hYrK48MPTpoa6x3V4MXbGu8bsyFCAACWttKm31WV94BKymokSR/8wxeiz1Wu/rQaH/pzSdLIrYsavHREZuA9W+IEAAAAgFySP4lYh1S9zaXKTVWS06Ghnju6ff62RgZGNDEyoZKyYpVWLlNVfbVq7qlR3fp6jV4b1kBHv6ZGp+yOHgCAJaHI/YDcW35HkjQc6NSA/2cznh/u71TfL9+Q+77PqnzlZpV/5q81+PE7uvv+t+wIFwAAAAByRl4kYh0lDtXuXaVla8p1++ptXTv3sUYHRmdsE/rboPo7b6m4tEirt63Vqk+t1sqH69X/9g1N3p6wI3RkkWl65FGX/E6mNl4o0/TIs2et1kjqPXUyrT5dyGsB5Lfidf9Rtff/gYb7O3XtvcMa7u+M28acHNX1946o54P/rpVNn9PqTz+tqns/q7uX66WRHhuiXjx8PgIAAACYS+4nYh1S7d5VKl1dpuvnPlHvhfl/xE2OT+na2au6c+22PPsaVfvQat36SY+mRvKrMtY0PWrZs1aS1NtzUn5/4f6gMxue1AuHdsrlcKj7ja/plTOL3xehH9jbtXVTrdwxjwf6L+rC+Xwbn7Xa13ZAHhk613NSfv9ivTZew+5WrUn4zHX1nsrfxHvy9zWNRA3yScn6A6p94CtSMKjOn/6pgsG552MPTk2o7/K/aODqGXn2fk21e15U4OTvKzhuLFLE2ZHetTi7n4+FhGtBfr4/AAAApKd4/br5vh6mp6KiIqv7q97m0rI15SknYWMN9txR979d0YaHN8r92VW69T965/3hGOEslRR0yJywb+Evz+NPq21HKOUX7Ja+caTdtlhsV18rl8MhSXLVNUryLVrTpulRy6Gn1eZ1J3ze623Sg82tOnf423o9r5Kx9jNNj7a2HFCzy5F4g0clo/uoXj2cXz9S531fkoLBAIkaC2T7mpZItq9z6ViM95eI0/2A3Nv/kxQM6urP/zbla6kkTQz3q/P417X1N19R9Y6/1J3Tf6igmdpdKlyLCwPXAq4F2ZaNz8pC/KyXMnvfFbWlkqSVtS5VjC+3JYZsKdRxjyjUvp+r7Wwf34nYPfa52vdLvf1CHne727d73Is/udabtR26XdUKGHeytr+i5cWq3FSl21dvxyVhV396jeo2rYp7zbAxrO7j07dKDt0c0rWzn2j9rntVft9yDfuG5myzanORqj/t1OTdoBxFUlFZ6MvztR8s7tQGpunR1ibX9AOezdplnlSHBT9AzIZWPftUqzy6oiMv/jAnf+Q4z7ysv9OT2ld3Uyde65IWKUbTbNWzXz0gb/hHVNDo1LnOi+rri2yxShs3bZDHsyjhLGlBo1O+mEI5l6tRLpdDLu9BPfvVVTl7bM5n9vua1q++RA9bKB/O9YXK5jUtkWxf59Kxft0ay99fIqVNvyv3lt/RcH9nwkrY0opabfjcX6u4rFqSNDE6oK7jf6GxwevRbczJUV351z9V06//pZa1/Vh9x7+k4GjyM6AQr8XpyqfzOZ1YuRZYL5+OnUwt9LOyED/rpczft7u0SutVo1v9hgLXBm2JIRsKddwjCrXv52s7m8d3InaPfS73/VJuv5DH3e72c2Hcc3pqgqot1ZLToWvnPo57bnxwTIO9gyoqKVJNg0t3++5q9PaIxgfH4rbtu3xTdZtXqfJTK+ZNxC5vDH0ZvfHGZCiGTU5Vby3KwrtJk2e7GmvCX9zVKK+rSRv3SB1nLGirfrO8LreCOX63qP/Mj/WKtIhJWI8eCydhg8GAzh37gV4/E1+J23EmMn+tpKX3W2bRDHQe1ytHZ/Zvw8Gv6Us73FLNBm31KC8rhhK9r2mLfMDkybmO3FLlPSBJuvbe4bgkbFX9A7qv9Q9lTk3ozvX3JEllNfdq46N/o0/e/b4C3W9Ftx3uv6KBj96Ry7NPpfc+obFf/t8RD1gSAAAgAElEQVRJ2yzIa3G68ul8TiNWrgWLIJ+OHQAAgCUmZ9NGDodDZesrNHj9TtzCXJJk+A35f+bT9X//RJIU6OqX/2c+9XxwPW7boBnUrV/eUkl1iUpqSpO36ZSKyiVzfPqH5kiPmYV3k76Wh0LzoQ50HteJztA3ZU/L59Vg2hNPIWo59JyaI0nYw99OmISNcDp9S7KixG6+19rVHQzK4XDLXW93NEBhKimr0XB/Z9zCXOUuj+7b+0dyFJXqF689J98735bvnW/r4tHflzk5qvU7/letWNc84zV9V45JkiobfiNpe1yLMRvXAgAAACwVOVsRW1xToqLyYt3+ZCAr+7t9dUDrmterrL5cEwPjiTcKF9sEY9f0suG3lmm2aqMnNG9Y1/ku+XRFRvNO1cxRCWI2eNRSv1bSdXUkSBgmWsnZbGhVS72kusjcp7XaumdveFGJxItjmKZHLY9v18baWrlcbskIqKv/oi68Fj9vW0NDq9bUS+q5rg5/fEyRBSwSLX4y+/0kW4l69uM+Narl8f3aWCvp0nG9MqsvzAaPWrbt18Ymt1wKyOi8qBMJFtoyG57U7vB0A75jmc39Gm2rVtN9dem4LiTp19nvr2H3k9q6qVaNLrcM44oCl96fMxmcTnuJpNteSu99nn7OhnTbysa47Nu0QS6XZBhXdPmtH6ojS+8r0zGMLCS3b9P0eWn0T/eD1ed6or6afS6eUOi5ZJ8H0Tb3rE0aE+wz4P9Z3GPrHzwkp7NUPR/8vwqaMRfOYFAfnfyOvA99XWu2fkG3r52NPjUS6NbYYI+WVc2RTcvja3Ei6X+Wt+qxbZvljnymGf0zXpPq+ZzO9TGXPnsyxbWAawEAAEA+yN1E7PJQaGO346thMzF6Z0TBYFBFy5O/ZUfMWgrFyx1a/ej0tuueLkm83x5T/T+bSvhcxvZsltfhUNC4ogs+SXpfXQM71exyq3Fbo5Toi2v9frU92qSg0ZHkS2v8Ss6eba3RBUgkyeFqUvOjTZKkYLBTb57qUuzvzIaDX9YTzY3RRbMkSS63msOLVfmO/WBm4jO8/6DRod4XZ8Zkmq3a13ZAXodDxrvX9b1Z78mzLbQ4SrD7aDixnGwl6tjHpX1PxcznqotSTDzRWxuj3HLtaJInQeyebRvkcjgUDHbq8imlVTuedHGvSF+1dOrNF1+aNcdg7Pu4rq1PPTdjcQ+Xa5e83l16sKUjbj63zNqL1agDL6Te3nzS6ed5Rc6FJOOQTltWjYvHs0Ebj31br5zJ/IfiQsawYfeX9URb/Hnp8jbJpdC5Zfm5Lmm+c/FEf/LPg4jIokjB7qP6Rob/CIDs++AfvhD32Mqmz6li5UYFun6qmxf/Oe75oZu/0Pl//GLC/V36l69IklYnmSM/r6/FM6T/2brr2a/N+hxwy+VqksdTq75Toc+A1M/n+a+PufbZkxTXAq4FAAAAS0TOJmIdy0JfzCZGJ7Ozw6Bkjk9F95t4G4fGbpoyx5OvbrsYWjY1SpIGOt+X3+mUUz798+kuNT/apJqm7Wows1Md4DvfrmN9kuoiX4o7de70xfCiEdcVO3V07I8c492jevV8ZAqItdr6UKuavW55H31ez+hr0R8hvvNzVA+Ff1RJintPsYuj+C6dVKpZUPdDrfLUGOp+t12X+6S6uvj4g8FA9IdDqMoj9GXf0/a0DvRMV76uqQ0vzuK7mNGiLHUulwyjU12npytYGnY/qSfadsrlatIjh/aqI8nK241PPacadensG8cVWaNuTTgx7XDt0rOHbsat2r3Y7SWTbj/Pua/wj8rQvuJ/eGbSVjb66dh/Ox4+N7Zr31M75XW55Wl7TrtOzZXsnl8msZm7v6wvhX9EG90dOvPW+9Hzds22/doY/n+rz/XZEp2Lc34eKPPzHvYoLg+N1dhdC5YZWiLX4nQ/W83dX1abd+ZnmhS6u2TrQ9OLk6ZzPkfMdX3Mlc+eZLgWcC0AAABYSnI2ERucCM0NV1SSpcU5HJKzuEjB8eT3N5oTQd06EaqoKV5uzw/AyC3xkVsho19AT11Ud1ujvK5d2rfnh3olCwuFOP3t6vBL5u7NapNbUr8uxNz2H1kUy2x4Uk80h74Ud78x+wu3T/4j7ep79q/U5nWE5s47Fa7y8U1XD7nrpdgyi5ZNoR9VAwMu1dTUas2Mp9fKXaO0qlEdDrc8nk69+WfxP4Ai8Ufneg3/GHM6feo4+h31KvRj48GH9ur1I+0yTY/qwnnYgf74OYdTceFHL+n1SLVUOB7/mR/ru6rVNx9tklyr1GCacT/iHQ63amri34ffPx2nPK060HByxo/KxW4vkXT7eTbXjuf1FztmPhY0OvXmj16Ku90z07YW1E+aXcHm05EfSS8c2imXI/kCPjVN+/XMswk6rH/mwi3pxmaarXq2LZQoMt79vr43axEYv/9ldYT/3/JzfVZfJToXnZLO+HaqzZvkGIgsipRBFToWnzkZWhjTWZR83vWM970ErsWZfLZGE79nZ1YZ+v3t8h9R9DxN9XyOjSXZ9VHKjc+eWFwL7B8PrgUAAADWydmvN1MjoUrY0splWdlfSVmJHEWO6H5zVeSWeA1EboUMcTrbdTn8d8+mvbbEFDQ6dOJU4m1Ov/VzGcFgdEVjKfRD6EJkcZOYmCPz7mngis50GnKEf7hERapl06xGHTh7POH20T71tSdMJvrOXwnF7tmsXVlYgMXp9Mmf7JbVnv5wP9WG52SLl+x9JFusZLHbS8aKfna4mvTIoT/RMwc9C25rof3kO51gigbf++oKT2PtqmtM+h683vg/ntq10W0yic3zeGv4tukOvfpaV5Ko05PpuT5bsmPq9KVwnAmOgeiiSEleC/tUrtkqZ3HZjMfGh0K1c+WuJAfBHMpW3Kty131Zic0q2bgWZ/rZWhPz2ZAtyWLJlc+e+XAtSB4b1wIAAID8krMVsROBcQUnTVWvW6FA160F76963QpJ0njf2IL3ZZUZt2Ml+KJ/+lKX2rxN4S+uJxflC2psTJHbMxNKUv0avQUttoLDs0qu8P5On5d2N+8M/aA9E6qK8IQXkUj3ljSjL6ZqKVH8WqVdu1vjX1hXm3Ib6QotWLZKdZtq5Xa55ZIrPPds4u3jqq9ihBIAB+T1Rn7oJVgAbZHbi8hGP8+u5AndWrpfu5sb5d3xvL6i0PPZaCuTfgr0xD/udPrUZ0hyzfG+ujt05tLN+Cd6EldbpxpbZPqMOc/LNCz0XI+V6FyUNF1NOKtqbPaiSDn8b4QFqfE//Jn6Lr+h6/9+JPrYwNUzqrh0VHWbDqrp17+pzp/++YzXrH/wkGo3PKKA721d7fiv0cedRaVq+vVvqqi4XL1HP7do7yEd2bgWZ/LZGtmvw3tQX39hs9780fGkixmlK+k5GcOuz564WLkWpBUb1wIAAID8krOJ2OBUUGO9o1qxfoWKS4s0OT5zEY4Kd4XK3OUqrQjdFrm8brmmJms1NTql258MxO3P3bRS5riZ04lY7dkfXfzB0/In+krL7A1CX4wdjibtfrxRHUcXdwGDVH7ISbOSdr6bMqQZc4F5tm1QjQydO98l+daGng8nan1q1NYmV9IfO8mksr3Lu0tt3rn2Efpv7A+qUGVS+v2ccNEMSYaR5NfdAi12e3NJtZ/nE7q19OXoraU1zfu167WXdHoBbdnST/3vhxecm1s6scVOn5HqeZmOjM71sLnORaezXSfOtsq7wz3jH1+iC/F0J65qg/1c9+1V7wf/n0xzPPpY7/l/VGXdFi1fuUmu+/bqbt8lyeFQec19qt3wiMYGe9R7/u9n7GfFPS0qKqnQ8M3/udhvIXU2XYudZ17W39WFF0dyNant95r0SHje0xMLWDl+vutjLn32JMK1IIRrAQAAwNKQs4lYSRq8eFt16+u1ettaXTt7dcZzLo9bq7dO39PnbqyVu7FWw3134xKx1etWqGpNle5cGFDQXPzEVKoi88NJksPlnquwIquLdllpuvIntMq06VO40qJLfb7p5z2eUKLW5wvNDxu9HTSLb8/oPqozl+baYnqhit5+Q/K6M6o+jiyaEQwG1P1uu06cvx691dBseFIvHNqpmozfhf3tzSedfk5FtKpabtV5NOO3Xjpt5Vo/xcrl2LItOp4x51bks4+FWXLTyK2LKl+5WbUbfkN9l/8l+rhpjqvzrW9o/Y7ndO/uP5jxmsHe93W14281MWJEH3M4i7Rqy+OSpGH/vyhX2Xkt9h99Wd99bboC1OUILYjkaZk9L2l25NNnD9eC3BqPheJaAAAAClVOJ2LH+8Y0em1Yqz61Wneu3dZgz53oczcu9KjvcvxqzcFZc02VlJeoodWjqZEpDV26E7d9rojOmyqp+43v60Sy6pX6/XqirTHparOKW/hqYWKrQ+e+PT2cQFV8BUXkdsua2rWSZ5UaazRj/tfI843bGqX6UDWEkaVb7GbcLth/ff5qlHCbkR8IrjQrnkzTo8daYhZcyWLVcuwxEunjxW4vmUz7OROZtGVlPy1UJrGlfl6mLhvnekrt+H8cXqgldEvq6VORW1FZmCVXDV76f1Te+lda/emnNXD1jCaG+6PPmZOj+vj0/6GxoV4tq6hT0OHQ2O1PdPPiq3H7qdv0mMqq12t04CNN9r61mG8hZVm7FqfYRqJzKFIB2nE0pjrStUtPPP5+3EJMC5Ernz2Z4lrAtQAAACAf5fzXnIGOfk0NT8mzr1GVqyqjj0+OT2l8aCzuz8TwRHSbkvISefdvUHFZsYxTfQpOpL4QkzkpDX9kzvtn7EaWKmwjt2MFO3X5VJf8fl/CP75Tx9U1EFqNtnFbzIIQkUUcIpUiSfafid7+UEVTTfP+5IsszYh/1nOnLqo7vFhGS32tXA5HuNphZuw1TdvVsqkxZm6w7IjG37RdDSkuEhX6gRD6/5rmp3WgIdVjZ/YPk5miC4skETeusaJ9HHu732K3l1wm/ZyK6fcQUJ8v07YW1k/Wyiy2lM7LNC34XE9RZKEWz6a90YVmWJgld5mBcxq8elJFJRXy7P1a3MJdknTjwj/p447/oqtn/q+ESVhJqt/6BQWDQd0+/39KwamE28S1nW/X4rBsfbb6z7w8fS3K+iJeufPZkwquBVwLAAAAloKc/6YzNTqlwImbkilteHijVm1eLYdz/i/J1Wurtengp1ThrtBAR7/Gboym1a45FpTx7tS8f4auLPxLb2wVRGylaCJOp08XOhN8QQ7PxepwuPXgQzNXcjbNVj3bluQHYawkqwRPr/DcpEcO7Y37sWM2TO8/0Rfo6VWm3drd0hj/pT2y2nDNBu12SbE/srIhsmqyw7VLTzyeuB8adj+pXbOSracPvx5d2frBQ3+iZw62JvyhZ5oe7ToYef11BZKsnGw2PKknmue6yTUkUeI3to9nrg692O0ll2k/JxPq19CcgNLMYyv9thbeT9bJLLZ5z0vTo4ZkfW3RuZ6ymH+c2Vfryvo/viD77r7/LfX+6zMqLq3U1t98RRW1G1J6XWg6gif1q1/8e93uflM3jn5OwYHzKbebd9fiGOl+tjY0JL7GRAz0J17UKdn5PL/c+eyZC9cCrgUAAABLSU5PTRAxMTCuW/+jV+7P1Gn9rntVt3mV+jtv6fbHAxoZGIluV1Jeoup1K+RuXKmq+ipNjUyp/60baSdhF51ne+h2faU2L1bsbfOR1WZjFz6IrLjsMyTJLZfHpRpfl7o9jUpULBu7eu0jX31OGw1Jrn5dfvGH6nA65XS268jhVXrh0E65vAf17LdaNeALKPQT1C2vN/TjKGh06NXXuhLedt7bb8jhdcvlkoLdM3/gRn7QNu9I/PxCOf0/1qtnN+hLO9xy7XheX28OyOcLRJ93eRpDi4cdnvU6Z7uOHJaefeqAvC63vDsOyrvjoIJGQNFZiGsiqxgHdO78rPey43l9palThjHdT0Z3pwxPY9I53oLBgAYGXGr+ve+o0Zj52tDznXrz8MloHy92e1b0c/T5Hc/rL3Ykfs7oPjrj2Eq3rYX2k5Uyjc3pbNeRY5v1QltjwvPS5XFJZ1/S92JXXV+Ecz219xz5vGqS1ysFjezPCQ0LjPQocPL3Vb3jL9X063+pgY/e0a0rxzQc6I7b1Oks1Yp7W7R6yxNaVr1OwWBQIx/+7zYEnYYsXIsjMvlsXfPQAbX93kEZ3Z3q6r8oabPcTY3yuhyJV5Gf53yeTy599sTiWmD/eHAtAAAAsE7efNWZGp7UrX/tlXH6loocRVr7wHptfuLTeuDZHdr6xft1/zPN2vrF7Wr4jEfLayt058KAbrx+LfeTsJq+3SxodOhECrd3xd4279k0Xf3qP/odHesO/QBxuJrk9TaFviz7XteRwxeT78/ZriPHusJVJaHXeWpq49r87uHX1W2EKkRd3un9hxaVODrnQiKRqhVJM6cliDzfN/3DKdHzC+U/+h393RudoffocIdjD/2pkaEBX3voy/8sTn+7jrz4ko692xmN3+FyyxX5E07Cxr7e99oPouPgihkH493v67tv9cc3MkvXj17Sse7AjNdKktHdoSN/9lLcj9bFbm8umfZzMobRqbNvfF/fO9Ied2yl29ZC+8lKmcbmPPNy0vOyRoaMWdNoL8a5nvJ7jv1MOJ39RYhgjeC4oTun/1BBc1wuzz5t+Ny3tenRmQnWshX3asuTL+ne3b+vZdXrNDrwkW6e/GObIk5dtq7FEWl/toZvB3d5m9S846CadzSFkrBGp948/O24OxNSOZ/nk0ufPXPhWsC1AAAAYKlw3NvgzdLEapLbVa2AkfqCWL/9W1/Qhx9+KMMw5t94luIVJSpbW67i5SVylDgkM5SsHbs5qrGbo1LW3lX+MU2PPJHSV196qzk3NIRe6Pcnz5bN2L+65E/htvVcYjZ4YiqD04t/5nvXnP0bu+1c/RnatlXPfuuAPDJ0LvyDO91xTKe9+V6f7nGTcH8L6Gcr21poP1lpIbGle17afa5PrwDepTfTTPhHuN1ubdmyRW+9/Y56enrnf0EWpHudy6b169bok2vZf5+ZXIud5XUqXv+4qu97WMXlNfrgH74Qfa7c5dGvPPzXGr75P3XX/7qmet9OeU7YpSjdz9bIuZnq9rGvyfQzLdc+ezLFtYBrQbauBUvxsz4Vmb5vt6dK2z/v0fs/9CngG7Qlhmwo1HGPKNS+n6/tbB7fidg99rnc90u5/UIed7vbz4Vxz4upCRKZvD2hodsT829YgJxO3/QKzml+oU3lC/+M/edPUXWU0+/T9ALXaa7yO+O9a87+jds2TemO42K3N+/+FtDPVra10H6y0kJiS/e8tPtcb3loZ6j6MMtTkWBxmCN9Gr/ysm5deVmStLoi5skxQ73//Bv2BJaD0v1snXFupnhuLDSRmGufPZniWsC1AAAAINfxjQcAsKhMs1UbPaF5NM+9lf2pSAAAuY9rAQAAKEQkYgEAi8Y0PXrsqwfkdTjiVo0HABQGrgUAAKBQ5e3UBACA/GHu/rK++WhT9O9Bo0NHZq0aDwBY2rgWAACAQkciFsgVA4YGFLA7CsAyhhE6vo3Odp147SSrYwNAAeJaAAAAChmJWCAHOJ3teuW77ZG/2RoLYAXnmZf1vTOxD3CcA0Ch4VoAAAAKHd9+AAAAAAAAAMBiJGIBAAAAAAAAwGIkYgEAAAAAAADAYiRiAQAAAAAAAMBiti/WVVlZKYfDYXcYAIA8U1lZaXcISwbXYgD5imsBAADIJ7YnYhsaGuwOITc5gpooGVPJeJndkcBGE6WjKp5YJkeQBAkA63Attl9QTo2Xr9Oykat2hwIAAADAIrYmYt96+x07m89prl8p1wpPmT5627A7FNjovoddun19VMblEbtDAXKWEeBzciG4FueGyo2PaMWn9unam89LwaDd4QB5h2sBAADIB7YmYnt6eu1sPmc5ixzyPLZJZVUlGiu9q4B/0O6QYAP3fVUqX7lKzjLp0s/8MidNu0MCsARxLbafw1mk+z//RZW679FY9RYFLh23OyQAAAAAFih2u6qzusNs768QrdxcpbKqEknSr+xbq18e7Zn3NRUVFRoeHrY6NCyiDZ+tlyQtqyxR06563fpFfEKecS9MjLu97LzOcY1dmlZsOaAy9z2SJM+v/YF08+yMqljO+cLEuNurUD/rM2m7qrI8/N8KybXw6bTy7f0vhbZzIYZcbTvbx3e67S+GXO37pd5+Ib93u9u3u+3igHEnqzvM5v7ype1stu8scmjT1nXRv1esWiZVB+etiq2oqCjIvrd73K2KwX1flZavWhb9e93WanV29MRVxTLu9rEzhkId90Jv385xlwq7761s2+Es0n33/y/Rvy9b2SStap5RFcs5X5jtF/K42x0D456mmtA/HA0ODStgLOxOPsbdPoXa9/O2ncXjOxG7xz6n+34Jt1/I4253+7kw7k5bWkdSa7e6o9WwEd7W1TZFA7t49swc82WVJVq7zWVTNAAAq9RteyxaDRtx777/TXKwSCMAAACw1JCIzSHOIofu3bUq7vHqtRVyN1TZEBHs4L6vSivWVsQ93rBzlZzFnLIAsFQ4nEVa/5nn4h6vWL1R7o2/ZkNEAAAAAKxEVieHJKqGjaAqtnDMroaNoCoWAJaWRNWwEVTFAgAAAEsPidgckawaNoKq2MKQrBo2gqpYAFgaklXDRlAVCwAAACw9ZHRyxFzVsBFUxS59yaphI6iKBYClYa5q2AiqYgEAAIClhURsDpivGjaCqtilbb5q2AiqYgEgv81XDRtBVSwAAACwtJDNyQGpVMNGUBW7dM1XDRtBVSwA5LdUqmEjqIoFAAAAlg4SsTZLtRo2gqrYpSnVatgIqmIBID+lWg0bUbF6oyoaWi2MCAAAAMBiIZNjs3SqYSOoil16Uq2GjaAqFgDyUzrVsBEr7n+GqlgAAABgCSARa6N0q2EjqIpdWtKtho1o2LlKjiJ+mANAvki3GjaixO1lrlgAAABgCSARa6NMqmEjqIpdOtKtho1YVlmiFY1lWY4GAGCVTKphI5grFgAAAMh/JGJtkmk1bARVsUtDptWw0ddvWc5csQCQBzKtho2oWL2RqlgAAAAgz5HBsclCqmEjqIrNf5lWw0YUlzuZKxYA8sBCqmEjqIoFAAAA8huJWBsstBo2gqrY/LbQatiIhp2rqIoFgBy20GrYCKpiAQAAgPxWbHcAhchR5NAv3vh4zm2q6yvU9Nl6db7Tozs9w0m3Gx+azHZ4WCSjt8f13j92JX2+tKJIVasqNHhzWOPDUwm3qVvpVt+tgJxFDpkcCgCQk5zFy9R59M/n3KZy3Vbd9+t/pI9++jcaunZhxnORz3pJmrjbb1mcAAAAAKxFItYGU+OmBq7enXObSIXjUN/ovNsiPw0bYxo2xubc5ublO3M+X2lWaeAaxwcA5LKp8WHd8b875zbOkmWSpOGbv4zbtnpyje5c67UsPgAAAACLg/uZAQAAAAAAAMBiJGKBHFXhWibPntWqcC2zOxQAAAAAAAAsEIlYIEeV1ZTKs2e1ympK7Q4FAAAAAAAAC0QiFgAAAAAAAAAsRiIWAAAAAAAAACxGIhYAAAAAAAAALEYiFgAAAAAAAAAsRiIWAAAAAAAAACxGIhYAAAAAAAAALEYiFgAAAAAAAAAsRiIWAAAAAAAAACxWbHcAABIL+Ab1b//5vN1hAAAAAAAAIAuoiAUAAAAAAAAAizm2b98etDsIxKtaX67Gh1er6yc3NPjJyLzbV1RUaHh4eBEiQy5h3AsT416YGPelbXnDbt3z2N/o6j//ke76z8x4jrEvTIx7YcrHcU/3dwvi5eO4Fwqrj2/GvjAx7oUpMu7FAeNO1nbqdlUrm/vLl7Ytab8mlB8fHBpWwBicd/OKioqC7Hu7x93KGGruWa4tbffoF8euauDq3YTbMO72sTOGQh33Qm/fznGXCrvvF6Ntszb0ZXxwaFgDs9rinC/M9gt53O2OgXFPU5q/WyyJIQsKddwjCrXv5207i8d3InaPfU73/RJuv5DH3e72c2HcmZoAyFHOYqfKqkvlLOY0BQAAAAAAyHdkeAAAAAAAAADAYiRiAQAAAAAAAMBiJGIBAAAAAAAAwGIkYgEAAAAAAADAYiRiAQAAAAAAAMBiJGIBAAAAAAAAwGIkYgEAAAAAAADAYiRigRw1PjShng8NjQ9N2B0KAAAAAAAAFqjY7gAAJDbUN6qLx67aHQYAAAAAAACygIpYAAAAAAAAALAYiVggR5WUFavmnuUqKaNwHQAAAAAAIN+RiAVyVFV9uR74YqOq6svtDgUAAAAAAAALRCIWAAAAAAAAACxGIhYAAAAAAAAALEYiFgAAAAAAAAAsRiIWAAAAAAAAACxGIhYAAAAAAAAALEYiFgAAAAAAAAAsRiIWAAAAAAAAACxGIhYAAAAAAAAALFZsdwAAEhvsGdF7/9ilu31jdocCAAAAAACABSIRC+SoidFJDVydtDsMAAAAAAAAZAFTEwAAAAAAAACAxUjEAjmqsq5Mm9vuUWVdmd2hAAAAAAAAYIFIxAI5qrSyRPWfcqm0ssTuUAAAAAAAALBAJGIBAAAAAAAAwGIkYgEAAAAAAADAYiRiAQAAAAAAAMBiJGIBAAAAAAAAwGLFbld1VneY7f3lS9vZbr+qsjz83wrJ5Vj09tNVqG1bGUOqx0Ch9v1SHXfapv1cbbvQ27e67eWVFZJCn/nOBG0t5fdO+7SdizHQduoy+d2S7RiypVDbzoUYcrXtbB/f6ba/GHK175d6+4X83u1u3+62iwPGnazuMJv7y5e2LWm/JihJGhwaVsAYnHfzioqKgux7u8fd0hhSOAYYd/vYGUOhjnuht2/nuEuF3feL0bZZOywp9Jk/MKstzvnCbL+Qx93uGBj3NKX5u8WSGLKgUMc9olD7ft62s3h8J2L32Od03y/h9gt53O1uPxfGnakJAAAAAAAAAMBiJGKBHGVOmhq9M9wlIYAAACAASURBVC5z0rQ7FAAAAAAAACxQsd0BAEhs4OpdnXrpkt1hAAAAAAAAIAuoiAUAAAAAAAAAi5GIBQAAAAAAAACLkYgFcpTbU6Vf++Ntcnuq7A4FAAAAAAAAC0QiFgAAAAAAAAAsRiIWAAAAAAAAACxGIhYAAAAAAAAALEYiFgAAAAAAAAAsRiIWAAAAAAAAACxGIhYAAAAAAAAALEYiFgAAAAAAAAAsRiIWAAAAAAAAACxWbHcAyB2//VtfsDsExJgqntDIndv6jc80qmh3id3hAAAsNFlaq6H+E/pc61YV71ib8uveevsd9fT0WhiZtfjuAeQ/vrNiKcvk+M73azMAa5GIxQx+v19DQ0N2h4EZbtgdAABgUbyT8paVlZVqaGiwMJbFw3cPYKngOyuWsvmP76V0bQZgHRKxmGFoaEiGYdgdBgAAmIPD4bA7hKzhuwcAYClYStdmANZhjlgAAAAAAAAAsBiJWAAAAAAAAACwGIlYAAAAAAAAALAYiVgAAAAAAAAAsBiJWAAAAAAAAACwGIlYAAAAAAAAALAYiVgAAAAAAAAAsFix3QEAAAAAaXNIpe5lKiovkqPUqeBUUFPDU5oIjCk4FbQ7OgAAACAOiVgsSGnT76rKe0AlZTWSpA/+4QvR5ypXf1qND/25JGnk1kUNXjoiM/CeLXECAICloWh5saq2VKtsfYWKyuO/ygYnTY31jmrw4m2N943ZECEAAACQGIlYZKzI/YDcW35HkjQc6NSA/2cznh/u71TfL9+Q+77PqnzlZpV/5q81+PE7uvv+t+wIFwAA5DOHVL3NpcpNVZLToaGeO7p9/rZGBkY0MTKhkrJilVYuU1V9tWruqVHd+nqNXhvWQEe/pkan7I4eAAAAIBGLzBSv+4+qvf8PNNzfqWvvHdZwf2fcNubkqK6/d0Q9H/x3rWz6nFZ/+mlV3ftZ3b1cL4302BD14jFNjzx71mqNpN5TJ+V3Mh0zssM0PfKoi2MqCxZynnKOA4vLUeJQ7d5VWramXLev3ta1cx9rdGB0xjahvw2qv/OWikuLtHrbWq361GqtfLhe/W/f0OTtCTtCLwim6VHL49u1sbZWknT5rZfU4Xcu+WtWPl9HcnVs8rlPAQBIBYlYpK1k/QHVPvAVKRhU50//VMHg3POwBacm1Hf5XzRw9Yw8e7+m2j0vKnDy9xUcNxYp4uwwTY9a9qyVJPX2nJTfP9eXu7Xa13ZAHhk613NSfv/ixLgUpdfvS5vZ8KReOLRTLodD3W98Ta+cWfy+CP3I2a6tm2rljnk80H9RF87n2/gs5DzN7jnesLtVaxI+c129p3Lvh3Kqkr+vafxYxrwcUu3eVSpdXabr5z5R74X5/zF3cnxK185e1Z1rt+XZ16jah1br1k96NDWSX5Wx+fCZG3ttiroknZb91yzr5eB1pOekOuY5LnLh+0RyOdincbg2AwAyV7x+3Xwfw+mpqKjI6v7ype1st19RWypJWlnrUsX48pRek+2xTMTpfkDu7f9JCgZ19ed/O28SNtbEcL86j39dW3/zFVXv+EvdOf2HCpqpVac4/3/27j46qvvO8/ynSkJGD4BuyQLxYJerJAw4gdCxeFQI66YTWzTYxlkn09k+GeLk2HMmZzfjzpxszm7nuc9pd3YTT2a3ezduN2F8Mj3Tm/YDwW2cdDMOJgLUhgyGTsBBUqWCQYCQrkBCIIFu7R/1oCpVlVRPt25J9X6dw0lcde/9fe/vd5/qq9/9/aokhVyybjs3+YbvsSfVvi78MyjUI31zb4djsZQT6j3O4obYD12jsVlSoGhFW5ZPm556Uu1+T8rv/f4WPdjaphN7ntPrJZAYmEksy6fVm3ao1XClXmC7ZPbs12t7ZtaPomn3S1IoNMAfqwrEzmcAp5+v5q8xdFdTdcZJ2HhDvdfV89/OafnDK+T56EJd/dmljJ9dnHz2mCnXXMvy6dEnwgm9kNmpN185qUvRLx28Z5Wb+Out+c5FdQanqWvaZlrcm7k3F0om9+di/I6fCjkcZ5RzuztdvtPtXvn+hUvTL5khjzFfA+b1gm1vppRtR/meqnlapnpd7Tc1cGFo2uWXLW1SIdsylaqWfy3PA3+skf6ulD1hq2oatPzjf6HKufMlSbdvDar74Dc0OnQxtox155bO/eP/rpY/+DPd1f6q+g5+VqFbfWnLnLeqQvM/6NadGyG5KqSKueGHhgs/Lu7rhZbl0+oWY+ID3yptsA6rswQevCxvm3Y/0Safzmnvd18u6YfBbGMtZr3PhHp0H3tRP9QubW28okP7uqUixWhZbdr9pR3yRx7aQ2aXTnSdUV/s1F2oFSuXy+crSjizWsjsUiDuZQHDaJZhuGT4d2r3lxaW7LE5ncn7NaFf6e8A9pgJ53ou7HoGcPr5qqK2UnUr5+na+WtJSdhFH2xS48qFSeuMmCPqOTgxZNLwlWFdOP6+lm24V9X31WokMDxlmU4/e8yoa65vrZrrI4mbV16O64npljvozD0L0yvU88RsvZ5Oxr3ZfrP5WJru/lyM3/FTIYfjTPnl3O5Ol18K7c7QBMjYPP8OSdKFX+5JSsLOW/xh3df272SN39b1i7+UJM2tv1crtn9P77/zAw30vBVbdqT/nAZ/+7YM31ZV3fu4Rn/z12nLrG0O34Qvv3EnXM5Kt+avrijofmUk+kPD7FJAzfIbLVqxWeo8VvxQkixeJb/hUWgmjPSQbazFrPcZUo/BY6/qJamISVifHo0kBEKhAZ048GO9fiy550znseh4c5Jmz7Nz0Q12HdRL+xPr17vzy/rsOo9Uv1yrfZqRPVRS7deEIh8wM+RcR9i8B+ZLbpcunPhd0ndjQ6MaujSkijkVqvcautF3Q7eu3dTY0GjSsn3vXVHjqoWq+8CCaROxTj57zNxr7oD6AkqKpdj3LGSuIG1TJtdT7s1FUCbHEgBIJfLohplhztx6jfR3JU3MVW34dN+WP5Grokq/3ve0Am8/p8Dbz+nM/i/IunNLy9b9Gy1Y2pqwTt+5A5KkOu/H0pbncksV1ZI1NpH0vdlrFXCPMrfpofBrd4NdB3WoK/yE4Nv0CXktZ+IpF9S78zY99bRaowmBPc+lTAhEud2BWdWDoVQE9nWoJxSSy+WRZ7HT0QDF43K5NHdZjYYuXk+amEuSzKCp4C8Cuvjf35ckDXT3K/iLgHrfvZi0bMgK6epvrmrO/DmaU1+VvkyHnz1m3DU37hV3oJxwbwYA5IoescjKYPAXSZ8te/Apud1V6n33RwpZcZNghEL67eHvyP/Q19W0+pO6duF47KubAz0aHerVXfOmeHKJdD4Jxc+r4UD+zbLatMIXfu2u+1S3Ajons3W96rP8C7h34y6tXtmgZsMj0zyngbMnp/yBZXnb9OiaVfK0eGRoQKbZn7CO5W3TpsWSGqPjxzVo9eYtkcH3JyYRmDyDbEDN2vTYNq1okHT2oF6Ki8Hy+rRpTfg7w/BI5oC6zx7U6WkmJIhOJrJ1ZUNsPbP/jA5FJhLJNNZ8693y+rRp8RJJF9WZom5TzaabW2wTs0PH6qn/jE7vSx4nzOttU9NiSb2px2yLTpiQaiKyyfuTbjbgbNo4tt0127Qiemx1TbRV4nK7tDHy6mvgQG7jEGZzTKXav+zPm9yO4ahsy8to36ep50LItqxCtMvWlctlGJJpntN7b7087eQwWe9LSVyHMj/XU9XV5HPxkJZEJtNJP4bjxASFM3symEKorJ+jiupKXXt/sCDbu3Z+UEtbl2nu4mrdHhxLvZCDzx6FuOZK+R+3mZzjsftT7HzyqHHzFm2QNN09K3Gf2/ToQ6vkMTwy4s71gG9L+HyddD/P5T6f6nM7noWiZsJ9ZLq2KdQzaNJ+zOI6LURZ3Jsl7s0AygGJWGTs3f/6yaTP7m75uGruXqGB7n/SlTM/Sfp++MqvdervPpVye2f/4YuSpEVpxkmO72BRWevSou0Th+vSJ+ekXOdWr6X+XxR4RuTNq+R3uRQyz+l0QJJOqntwvVoNj5rXNEvTTYigZu149umEQfENY4P8/g16cFNnynGQNuz+8qQJOjwyjBb5fA3qO/KCOt1u+da0xSaxkiSX0aLW7S2SpFCoS28e6VY4Vxk/g6y09Ym4ced0Ror8WEo5KYjhUau/RQ9u6tKb330h5dis3o2f1+PtzYk9YgyPDH+LDF3U94OBLGKNk0u9L96m9u0tCpmdaR6SkmfTzTY2787P6/HW5P1tjUycEjjw48TEZ2T7IbNTl7476YeJ1aat7Tvkd4Un1/j+pH3yrQlPVBbq2R/5wZluNuDp23gi/sirdDEeGeta5EsRu2/N8vAELKEuvXdEWb1DkdsxFb8fF7X6iczPm3yO4bDsz9OpZFPP04qeC2naIZuy7GoXn2+5Vhx4Lq+Zt0vtOpT1uS5punPxUH/660FUdILCUM9+fTPHRMNsUVkbvu+PXkvuDZuLW9dvKhQKqaI2/eOvk88e+Vxzo/I/bjM8xyP32yiXy6PW7TslKXYPDkwxg33K8z3uXD/R5VFr9FyJv5/ncJ9P/rzwz0JhJXwfSZK+bQr5DDqr65R7M/dmAMgRiVjkpbI6PJHS6A0bhnQPuTR6xZI15uwrb5tWNkuSBrtOKuh2y62AfnK0W63bW1TfslZea+q/ijY/8bTq1a3jbxxUdJ6RpkiCzWVs0O6nruibeztiy1sbP692v0eh0EDCw4TX26bVD01MShI41aEDfZIaow8PXTpx9ExkcP2LSjX0t+ehNvnqTfW806H3+qTGxonvGg1Dptml7qMTf932btylx9vXyzBa9MhTW9QZF2c01s9GHpbMnk4de2tituSmNdu0Io9Y8633TGUTW/xDtfnOfr12Kvr66xKtfqhNrX6P/Nuf0Wf05dhDb+DUFD15Iw/xkpL2KX6issDZw8r0F/lUbRyNP/7YCvcqCB+PvvYntaN3ohdWU0NkorTAmZwmSMvlmIrK9rxxorx0sq3nKbcV+RET3lbyD51cyipEPR34m4ORc2Ottj6xXn7DI1/709pwZKof1NMrletQLuf6ZKnOxSmvB8r9vJ+tXHeF9//2rTuF2WBIssbGY9tNvYxzzx75XnMLcdxmfI73HtSBN85MnE+hAZ040BE7n4Ju95Q9iTc99bTa/eEhGALHO3QoGuvitXq8fb1a19lX/4V+Fooq1ftINux4Bp2Ndcq9mXszAOSDRCzyYt0JT4jhrkg/3lrO274d0tVD4R4mlbXOJGOjrwlGX4+P3XiPnFFPe7P8xgZt3fyyXkozeZTL5VF9fZfe/GriA1Aw+B1dUuRhwtemHd7DsYexWALyeOJfdIPBDgX3KjapgjvYoc6gZG1cpXZ5JPXrdPzrZZMeuFwuj3y+5FiiTr/ygl6P9siMfB889qqeV4O+tb1FMhbKa1lxicI27W4Px2q+8wN9f9Jg/8Hgi+qM/P9sY8233rORaWyWd5cebw0/hPW8MfkBL6Dg3g717f5ztftd4XFsj0R6aQQmevJ6Fkvxf9bftDL8ED84aKi+vkFNCV8vkadeWfWMmqqNo/HHxh2MHG9ud0Cd+yeOxwcf2qLX93bIsnxqjOQEBvuTx1vMRLbHVPx+ZHveOFFeKtnW82TGumf0jXWJn4XMLr35ygtJrxfmWlZe9aTJPZAC2vuK9OxT62W40k+mV9+yTZ/ZnaLC+hMnCimF61DO5/qkukp1LrolHQusV7s/zTEQm4E+9x6Rs0nodnic1oo5BZooyyW5KysUGkufIXTq2SPfa26hjttMz3F3MKDOYCDufBpQ35HDGSV7Jg/BkBBrMKDne6PlFb7+C/0sFL/dUrmP5MOOZ9DZUKfcm7k3c28GUEhcRpCxuqbVclfOTfhsbDj8d8pqw5f19uYuuFfVxn0Fic0u0dcENRh9PT7M7e7Qe5H/9q3cMuU2Bo8fTPmwP90g//UNS/IJPatY3O6AgumGWOjtlxkKSZFEYZTvsbbI0AGdem1fd0HjLES9F1rslVGzU4eOpF7m6Fv/HKmr8F/UpXDdno5ONBYXc3QMXA2e07EuU67Ig3JMtLdslj2j0rVxrE4DHSl/sAROnQvH7lulDQWYDC2XYypetudNsctLx456dhkteuSpr+gzOxOvs7mUlW89BY6meA00cFLdkSE8jcbmtPvg9yf/88Vd50rlOpTruT5ZumPq6NlInCmOgdgEhWnWLTfjN8M9Yavq7irI9ubMnSNXhSu23dmkUMdtrud4IWN1B1+VnW/+FvJZKJPtlsJ9JFuFegadzXXKvTl9bNybAWBq9IhFxpr/h6+q7703dPG/7419Nnj+mGrO7lfjyp1q+YNvqeufvpawzrIHn1LD8kc0EPi5znf+Vexzd0WVWv7gW6qorNal/R8v2j5kI+E1lBQPOEfPdqvd3xK5YafuBZLUozNOOKm4Q35/9AEpkLBdl3+nvv7sKr35ysG0A8dny+xLHUu88ORSC9W4siE8eYaMyJh1ictFX6GMDh1QKIWo90KLj2nK/U3T+zX2ylN8jwHfQhmR7R09JW1sXR9O1B4L/xXeF5m0INtXoFK1cUL8WqgNG9uSV2xsyLiMbGV6TEXlct44WV5UIep5cs+R8KuM27SxtVn+dc/oiwp/X4iycqmngd7kz93ugPpMScYU+9XTqWNnryR/0Zu6559T16F8z/V4aa+30Z79k3opTZ6gkL+VS7cHxhS6Y2n+0gUa6L6a9/bmL10gSRrrG817W6WkUMdtPud4NjI5by/1m9LkMSkLpJDPQlGldB/Jh53PoDO5Trk3Zxcb92YAmBqJWGTFuG+LLr37t7KsidmGL536O9U1PqDau1fKuG+LbvSdlVwuVdffp4blj2h0qFeXTv2XhO0suGeTKubUaOTKvxR7FzK3eVts0Hvfpq/oi5smLxB+IHC5WrTxsWZ17i/Mg6r72Iv6YWNkIHqjRe2fa9EjkTGmDuUxS2e6B7WolAPqSzLN5Ce/+FcoM/lBkxWH6j1Tme5vwg+DwBWZUsLYU741y1UvUydOdUuBJeHvI4nagJq1usWYts0my2R5w79B7f6pthH+3/gH+HDPmOzrOZtjqhCKXd5UMq3n6YRfZXwx9ipjfes2bdj3go7mUZYj9dR/MuUM55OVzHUoi22mSgJMdS663R06dLxN/nWehD++xCZ+6Undi6ochcZDGr10SwuWLVBlVYXujCVOiFXjqdFcT7WqasLDI9U21mr8ToPGb43r2vuDSdvztNwta8wqyURsIa65Un7HbTHYfd5Op5DPQnYr1H0kG3Y8g87GOuXeHMa9GQByQyIWGbt59Yyq716lhuUfU997/xD73LLG1PXWN7Vs3dO6d+P/nLDO0KWTOt/5/+j2TTP2mctdoYUPPCZJGgn+g0pVdJwsSXIZnik7ghRy8ihJCu5/Uc/vm/hru+EKDz7vy2GG2ExEB9QPhQbU80540ozoa0iWd5eefWq96gtaYnpO1rtdJnpueNS8pllWQJG/7HerLzDxvc8XTtQGAuHxYWNDMxRw98ye/Tp2dqolJiZGiPVIyqH3cbGPqVI6hqXs6jkTsV7V8qjRp4TfFtmUVWr1FK+UYyu0WHvGnVvRax8TgSQaOnNNjcsWa9GaJbpw/HzCd4bPo0WrJ95L9jQ3yNPcoJG+G0mJ2PlLF2he0zxdPz2okFX8BFAm8rnmIn+ldg0q9H0kU4V8Bp3tdcq9mXszAOSCRCwyNnT2P6m67c+16INPavD8Md0e6Y99Z925pd8d/Y8aHb6ku2oaFXK5NHrtfV0581rSdhpXPqq585fp1uBvdefSW8XchYzFxu+U1PPGD3QoXe+Jxdv0eHtz2lk2My0j1V93o39t79wf95doY4Mef+xk0qD3+bAsnx7dFDc5Qwbbju+5U8heNQWr96SJr/KT+f5GEqhKbtPo6371DUsk30I11yth/Nfo981rmqXF4b++mwV6pSvh9bT+i9P3foiUGX0gNbLsfZzLMZWpVOdNsctLJ9d6zkUuZdlZT/kqletQIc71jMoJvhqZGCT8CuTRI9FXH5kIZLKxvlHdujCihR9YpOsXrmmo93rsu8une9X3Xl/SOqFJ4/vNqZ4jb5tP4zfHNXz2etLypSLXa26xjttCy+u8LfB9vhzvI1NvNv9n0HKsU+7N3JsBIBNcTpAxa+CEhs4fVsWcGvm2fDlp4i5Junz6/9PvOv9S54/93ymTsJK0ePUnFQqFdO3U/yWFxlMuk1T2HWnkt9a0/0YvF6iXS/Q1lFCX3jvSrWAwkPJf4MhBdQ+GZ+FsXpM8EH66zxPLmP518uCxF2MTVxR+Eq/JDy2JYpMOTHKpP9zLub51W+Emi8i33qOTBkR7JqTZfi4y2t+E+Cd9d+SMeiKTM2xa3CDD5Yr8dT0x9vqWtdq0sjluLKrCiMXfslbeDNsrfsKU+tYntcObaTvndkxFZX/eFLu89HKp50xM7MOA+gK5lpVfPdmrdK5DeZ/rGYpODOJbuSU2sQkTgaQ22Nmv8ZFx+bY2q25hXezzO2PjGhseTfp3e+R2bJk51XPk37ZclXMrZR7pU+h25sdJsZ89cr/mFu+4zVf8BJbprl3x40Emse0+P/vvI7nK/Rl09tcp92buzQCQC64oyMqNk9/WpX/8jCqr6rT6f3xJNQ3LM1ovPBzBLn3oU/9F13re1OX9H1do8FTG5VqjIZnvjE/7b/hc/jf7+L/+TjdjfcIPijQPBql+TFneNu1uj5aROOaQ19s25YPbYH/qAfSnmk11ahc1kGZWVcu7S4+3pv4xNDFjbYseeWpLUsyW5ZM33Y/IFLEWpN4jY7G6XB49+NCWSduPq/OppKnHafc3rk1TPbCFhx+QJI82bmpOfkiMzm5bv1wbDSn+ob4QorP0uowNevyx1PXg3bhLGya12dE9r8dmJn7wqa/oMztTH5+W5dOGndH1czum4mV33hS7vPRyred0wvUaHoNOSjy2si8r/3qyT2lchzLa5jTnesbi/jiztcEo+B9fZpPxW+MaOHRFsqTlD6/QwlWL5HJPn5iYv2S+Vu78gGo8NRrs7Nfo5VtZlVvMZ4+o3K65RTxuC2Cqa5dl+bTpqadjY8Unr1yA+3xKs/c+ko3CPoPO3jrl3sy9GQDywdAEyN7NXg0c/oLmr/sztfzBn2nwt2/r6rkDGhnoSVrU7a7Sgns3adEDj+uu+UsVCoV081f/wYGgs+BbG35tXJmNBxT/KmH8LJtSeFD4wUFDrZ/7jprNLpmmJHnkj8wEHAp16c09hxNeg2p6aIfaP7dTZk+XuvvPSFolT0uz/IYr9YydcbN8PvKlp7XClGT0673vvpzRQ0g0qdm6ziNj3TP6YktinGZPl0xfc9L4T253h/YeWKVn25tl+Hdq97fbNBgYUDg96pHhM6TjL+j78bPtThHr0QLUe/xA+9EZfwPmRDz1gW71+JqVqhPNdPXodndo756Fevap9Sn3N9amZqde29ed8tW2S/2mXH6PDEMK9SQmmxPaIcX3+XIHX9Vrx5frs5F2/nrrgAKBgdj3hq85PHnYnknruTu0d4+0+4kd8hse+dftlH/dToXMAcVGYKyPzpo7oBOncj+morI9b4pdnh31HPt+3TP6xrrU35k9+xOOrWzLyree7FQq16FCneuZ7XP0etUiv18KmYUfE3o2uT04pqs/uyTPRxq1bMO9aly1UP1dV3Xtd4O6OXgzttyc6jmav3SBPM13a97ieRq/Oa7+ty5nnYR1Si7X3In17D9uCyHp2tUyoIAZvnZFr1s9PYrFnLBuPvf5qWIql/vIOz+YcmiBwj6Dlkmdcm/m3gwAWeKSgpyExkxdP/rvFLLGZPi2avnHn9PK7YkJ1rkL7tUDu17QvRu/oLvmL9Wtwd/qyuF/71DEmYu+ZhMyO3Uog9da4l8l9K3ckvR99ysv6EDPgAyjRX5/S+xBwezp1N6vvpCcbIu8emP4W9S6bqda17WEH4DNLr2557mkv/yHH3a6I399D5fhq2/Iap8D+36sAz2RH0FxcZrv/EDPv9Wfdj33sRf1/J7X1WOGe+8Y/ol162XKnDR031SxFqreg/u/E9sXV3ydB17X3j1n0m8vg3p0B19Nu7/hSQz2TzmRRbSXhKTEYQmi3/dNPKin+j5fwf3f0Q/f6Arvo8sTiT38r16mBgMd4YfNSdzBDu397gs68E5XLH6X4ZER/RdJCMSvn+sxFZXteVPs8qaSaz2nY5pdOv7GD/T9vR1Jx1a2ZeVbT3YqhetQbJk8z/WM9zn+mnC08BMxzjbjI3d09R8vyTx6VRWuCi358DKtevyD+vDudVr9qd/T732mVas/tVbej/hU21Cj66cHdfn1CzMmCRuVyzU3vF5xjttCCO7/jn4Y2T+XMXHtqh/s1pt7ntOh6ClvXkl53cvlPj+d2XwfyViBn0Fnc51yb+beDAC5ct3r9Rds6liPMV8DpjOTIDhZth3le3zztPYTPp18OaCBwNC0yy9b2qT3L+Q3d+qn/+iT+tWvfiUz/KfOjLirG1W57DHNv+9hVVbX693/+snYd9WGT/c//BcaufIvuhF8XeOXfp7xmLCzkWX55It20Qh0T3tT93rj+nNksHz8OsFgbk/n8TFmu42E/VO3gtO8KpZvrFnFk2H9RWUSW7b7W2osry+ux1B28Sfuu6as32yOKctq0+5v75BPpk5EfvBl2475HMOT18/2uEm5vTzq2c6y8q0nO5XadcjOc31ixuluvZllUsHj8eiBBx7QWz9/W729dsydHinH5uerXJ49oioXzNHcJdWqrJ0j1xyXZIWTtaNXbmn0yi2pYE+4zsrmmpt6ndK+R00870zE6Y289h3q2a9v7u1IuV6hr9eptltu95GoQj+DlnOdcm/m3jydQvyOzwc5HGfKL+d2d7r8Umh3hiZAXqybfRo796KunntRkrSoJu7LUVOXfvIxZwIrQW53QMFg7D+mNdI0xwAAIABJREFUXT7h4SPDB4B8H9oSYsxr3Sz3zwbZ1ne8TGLLdn9LjTsYiJttOstZZScfJ9OM55vrMZW0foZDbRSzvGm3l0c921lWvvVkp1K7Dtl5rm96aH24d2OBhyIpF3eu3dbwtdvTLzjDZXPNTb1OaR9bE+dhOM74ybrSjkmqwl+vU2433/Vn2H0kqtDPoOVcp9ybuTcDwGRcWQAAAIrMstq0whceB/HEW4UfigSYsTZvU2vCmKQAUBzcmwEUAz1iAQAAisiyfHr0Szvkd7kU6sls1m9gtggPQ9MmHe/QoVOHY68UW5ZPmx7bpo2tkdnZA5wbAIqHezOAYiERCwAAUATWxs/rW9tbYv8dMju1N8NZv4HZxZB/3U751+1M+a3Zs1+vcW4AKALuzQCKjUQsAKB0DJoa1IDTUQC2Mc3w8W12dejQvsPMxoyy43Z3aO+ei9q0ZptWtHhkxH1ndp3Te6deVmfQTRIEQNFwbwZQTCRiAQAlwe3u0EvPR2fH5gEYs4/72Iv6/rH4DzjOUZ7cwYA6gy+qM/W3RY4GQDnj3gyg2LjKAAAAAAAAAIDNSMQCAAAAAAAAgM1IxAIAAAAAAACAzUjEAgAAAAAAAIDNmKwLCerq6uRyuZwOAwAATKGurs7pEAqGZw8AwGwwm+7NAOxDIhYJvF6v0yEAAFCWLPddclujTodRdJk+e1iucblDFTZHA8w+45W3dbP6mqpvLlDFnTlOhwMAQFkjEYuYt37+ttMhAABQlu66e7nmf/AJ9f38L7JazxwwbYqoOLJ59lj0YJ2GL47pRu+YjREBs0/tkird+1C9fn2iSzcucv4Adpvp92YA9iIRi5je3ktOhwAAQFlaufVPVdu8Rb/52X/Urf6A0+EUTabPHlW1c7Si5W5Vzpe6fvk7m6MCZhfP3Hm6V/UaGDA10DvkdDgAAJS1So8xv6AbLPT2ZkrZhS5/Xl115H9rJCOzcdOc3n8UX01NjUZGRpwOA0VGu5cn2n32mtu4Qp7lWyWXS83bvqDef/xWwvdOt30pPF8s3eCRu9Kt+Utq5P3gIg1duOl0SLZzut3hDDvaPZffFSguzvfy5vR9lhxO+ZVd7uU7XXblgHm9oBss5PZmStm2lF8fkiQNDY9owJz+L9c1NTVlWfdOt7vTMdDuzqHdnVHO5TvZ7lJ5173dZa98+F9Lkcmq5t//MXUf/MuEXrHlfs4Pj91Uw8qJCVAa18xT8F8uF638cjznnW53p2OYde2e4e8K2n2WtXuWyrXunT7unW77cq77cj7ny7nuS6Hd3Y6UDgAAANUtfiDcGzbC5a7QPVuedjCi0uNd3yh35cQj6/wlNfJ45zkYEQAAAJAbErEAAAAOWbb138Z6w0bd/cHtmtvgcyii0lJZXaGlH/Ikfe5vW+RANAAAAEB+SMQCAAA4YHJv2Ch6xU5YtGZBQm/YKHrFAgAAYCYiEQsAAOCAVL1ho+gVK1XVztHdq9InW+kVCwAAgJmGRCwAAECRpesNG0Wv2PDYsK6K9DO80ysWAAAAMw2JWAAAgCKbqjdsVDn3iq2qnZNybNjJ6BULAACAmYRELAAAQBFN1xs2qpx7xXrXN6YcG3YyesUCAABgJiERCwAAUESZ9IaNuvuD21W54B6bIyotmfaGjaJXLAAAAGYKErEAAABFkmlv2CiXu0IL1v5PNkZUejLtDRtFr1gAAADMFCRiAQAAiiSb3rBRtc2/XzZjxWbbGzaKXrEAAACYCUjEAgAAFEG2vWFjXO6yGSs2296wUfSKBQAAwExAIhYAAKAIcukNG3X3B7fP+l6xufaGjaJXLAAAAEodiVgAAACb5dwbNsLlrpj1vWJz7Q0bRa9YAAAAlDoSsQAAADbLpzds1GzuFZtvb9goesUCAACglFU6HQAAAMBsVjl3vu7cHNSVd19Lu0zVvIWq92/WYM8RjQ1dSfiutqZaN0ZuSpLqmlboVn/A1nidMG/RXF1+71rS53dVzdHo2G1VVrlVXV+lm4NjujNmTbmtufPm6NbQbbtCBQAAAHJGIhYAAMBGd25dV9e+P51ymfqWj6jev1kXj72kwa5fJHy3bGmT3r9wyc4QHdffM6T+nqGkzz3GfA2Y1+XxzdPaT/jU9fYlDQSSlwMAAABmAoYmAAAAAAAAAACbkYgFAAAAAAAAAJuRiAUAAAAAAAAAm5GIBQAAAAAAAACbkYgFAAAAAAAAAJuRiAUAAAAAAAAAm5GIBQAAAAAAAACbkYgFAAAAAAAAAJtVOh0AAAAAMJWBwJD+2/95yukwAAAAgLzQIxYAAAAAAAAAbEYiFgAAAAAAAABsRiIWAAAAJa3+nlptfnql6u+pdToUAAAAIGckYgEAAFDS3JVuzZ1fJXclj64AAACYuXiaBQAAAAAAAACbudauXRtyOggkm7esWs0PL1L3Ty9r6P2b0y5fU1OjkZGRIkSGUkK7lyfavTzR7rNbrXej7nn0ezr/kz/RjeCxhO9o++yfi2YD2r082dHu5Xj+zDSc7+WLti9PtHt5irZ75YB5vWAb9RjzVcjtzZSybSm/PpwfHxoe0YA5NO3iNTU1ZVn3Tre70zHQ7s6h3Z1RzuU72e5Sedd9Mcq2GsIP40PDIxqcVBbn/PWsn4sKXr4DyrndnY5h1rV7hucP7T7L2j1L5Vr3Th/3Trd9Odd9OZ/z5Vz3pdDuDE0AAAAAAAAAADYjEQsAAAAAAAAANiMRCwAAAAAAAAA2IxELAAAAAAAAADYjEQsAAICSNjZ8W72/MjU2fNvpUAAAAICcVTodAAAAADCV4b5bOnPgvNNhAAAAAHmhRywAAAAAAAAA2IxELAAAAEranLmVqr+nVnPm8jIXAAAAZi4SsQAAAChp8xZX68Ofata8xdVOhwIAAADkjEQsAAAAAAAAANiMRCwAAAAAAAAA2IxELAAAAAAAAADYjEQsAAAAAAAAANiMRCwAAAAAAAAA2IxELAAAAAAAAADYjEQsAAAAAAAAANiMRCwAAAAAAAAA2KzS6QAAAACAqQz13tQv/65bN/pGnQ4FAAAAyBmJWAAAAJS027fuaPD8HafDAAAAAPLC0AQAAAAAAAAAYDMSsQAAAChpdY1ztar9HtU1znU6FAAAACBnJGIBAABQ0qrq5mjxBwxV1c1xOhQAAAAgZyRiAQAAAAAAAMBmJGIBAAAAAAAAwGYkYgEAAAAAAADAZiRiAQAAAAAAAMBmJGIBAAAAAAAAwGYkYgEAAAAAAADAZiRiAQAAAAAAAMBmrrVr14acDgLJ5i2rVvPDi9T908saev/mtMvX1NRoZGSkCJGhlNDu5Yl2L0+0++xW692oex79ns7/5E90I3gs4TvaXqpbPFf3fvRu/e7tqxruveV0OEVBu5cnO9o9298VKD7O9/JF25cn2r08Rdu9csC8XrCNeoz5KuT2ZkrZtpRfH86PDw2PaMAcmnbxmpqasqx7p9vd6Rhod+fQ7s4o5/KdbHepvOu+GGVbDeGH8aHhEQ1OKotz/roGzOv63a+vOFa+E8q53Z2OYda1e4a/K2j3WdbuWSrXunf6uHe67cu57sv5nC/nui+FdmdoAgAAAAAAAACwGYlYAAAAAAAAALAZiVgAAACUNI9vnn7/36+RxzfP6VAAAACAnJGIBQAAAAAAAACbkYgFAAAAAAAAAJuRiAUAAAAAAAAAm5GIBQAAAAAAAACbkYgFAAAAAAAAAJuRiAUAAAAAAAAAm5GIBQAAAAAAAACbkYgFAAAAAAAAAJuRiAUAAHDYqHle5w/9lUbN806HUpJuDY4pcOSybg2OOR0KAAAAkLNKpwMAAKCQPv1Hn3Q6BCBHV6UlGyRtcDqQ0uV1OgCUgrd+/rZ6ey85HQYAAEDWSMQCAGadYDCo4eFhp8MAABRQXV2dvF6y8QAAYOYiEQsAmHWGh4dlmqbTYQAACsjlcjkdAgAAQF4YIxYAAAAAAAAAbEYiFgAAAAAAAABsRiIWAAAAAAAAAGxGIhYAAAAAAAAAbEYiFgAAAAAAAABsRiIWAAAAAAAAAGxGIhYAAAAAAAAAbFbpdAAAAJQMl0tzFixXxdy75ZpTp5A1Kutmv25fO6fQ+KjT0QEAAAAAZjASsQCAsldR06Talk/qrqaPqGKukfR9aHxUY30nNNz997rdf9qBCAEAAAAAMx2JWABA+XK5Vbfys6r1PyG5K3Tj8q91/eI+3bx2XnduXVPlXfNUVduouqbVWrDkQTU0bdbopaO69u73ZI0OOh09AAAAAGAGIRELAChLrspaGeu+pqrGD+v6xRO6ePJHGr1+IeWyA4Gfq7KqVo0P7FLjij9Uw5a/lNn5p7ozFChy1DOTZfm06bG1WtHQIEl6760X1Bks3jD1luWTb/MSNUm6dOSwgm57y7Ysn3zqtr2cbOVTD8WuQwAAAGA2IhELACg/LreMdV/TnLvXqvfd/6wrZ/ZNu8qdsRvqPfkjDfW+K+/mZ2VsfE79h78g69bVIgScO+/GNjWl/OaiLvV2K2hzQtTy7tKzT62X4XJNfHhW6gzaWuwkS7S1fYd8MnWi97CCWZYdq8Pew9MmkOP3t+eNL+ulY6WUsMynHvKrw8mmPC6PlF4SO1Pp92sCiWwAAIDyRSIWAFB26lZ+VlWNH844CRtv+PJp/fbwc2p+6GuqX/8NmYf/F4VCVkbruqskhVyybodyiDp7luXT6k071Gq40i4TCg1oMNCh1/YUPjlkWT49+kQ4KRkyO/XmKyd1qaAl2C++Ds13LqozOE0v6MUNsaSz0dgsiV7Tk017XG6XzJ79thyTdsr0fCtEIhsAAAAzE4lYAEBZqahepFr/E7p+8UTKJGz9PRtVf99HVV3v1fjokG6aPer7zQHdunY+tsyNq79R77t/qyUf3q25S39fN9//pynLnLeqQvM/6NadGyG5KqSKueFEzYUf3y7szk0hZHYpYMZ9YHhk1BsyXB4Z/p3a/e02BQ78WC8dK2Di0LdWzfWR5NMrL8f1Ji2d5JrlbdPuJ9rk0znt/e7LeSf+3Mde1A+1S1sbr+jQvm4px+0VOq5SNfm4NIxmGYYrfEx+aeGM3fek8y2mX31FjqVcjiUAAICZoHLZ0uleoMpOTU1NQbc3U8oudPk1DVWSpLsbDNWM1Wa0TqHbMhvl3O5Ox0C7O4d2n5nl1y7/lOSu0MWTP0r43OWukHfzs1qwbL1uXfudhi6ekMtdqXmLPyzDv00XTvyN+rt+Flv+atdP1XD/w6q9/4+nTcTWNocTH5ffuCNJmrfSrfmrK/Laj2wNdh3US/uTk6zhJM0O+Q2P/Nuf0Wdkx+v0A+oLqJTyrxMWr5Lf8CiUMmmWm+CxV/WSlHMSVpItcZWiVMeld+eX9dl1Hql+uVb7NCN7j6Y738KKfCLM4mPJznvhbLrHZ/O7wul7vNMxzKZ2z0W51r3Tx73TbV/OdV/O53w5173T7V75/oXCvSToMeZrwLxesO3NlLLtKN9TNU/LVK+r/aYGLgxNu/yypU0qZFtmo5zb3ekYaHfn0O7OyLd8l8utu5o+ouHLv0qamGvR6k9pwbL16n33b3Xl7D4pFB4+wOWu0D3r/42WPfg53TQDGuk/J0kKWeMa6D6oxR/6Y1XO9+vO9Z7UZbqlimrJGpsYjuBmr1X0RGw67mCHXnq+I5b88rV/RTt6n9PrhRg7NvKafqg4IzFglgjs61BP6w75XR55FkuagYlYFIdd98LZdo/P9HeF0/d4p2OYbe2erXKte6ePe6fbvpzrvpzP+XKu+1Jod4YmAACUjcr5PlXMNXT94muJn1fVqvH+7bree1JXziR+F7LGdf6dFzQ6dEkVd9UlfHf9wi+1+EN/rLsWPpg2EatIvjU0HvdZZkPKFlVg3491vOVptRoePfjQFr2+tyPlcpbXp01rtmlFi0eGBmR2ndGhU4cTJv2yvD5tWrxEavREPvGocfMWbZAkXVRn3PAHse01SIbhkcwBdZ89qNMpJmyKbXfSNmLfWz75Ni9Rk6afEMnytmnTYsXF2KDVm7dEJlrKfcKo6WKwvG16dM0qeaL1Z/Zr4OxJvR7Zn2zjyqb+UvFu3KXVKxvUbHhkmucSYsl63zM4Ngol27KyOs5StKF34y5tXblchiGZ5jm999bL007clvW+ZNmG4TjXauvKhth6Zv9EPeRyjFuWT5seW6sVDRPb7O4/o9P7Up9Pk+sqoGZteiy8Lzp7UIe0JDLRXfrxlS3Lp02bl6SNCQAAYDYhEQsAKBsV1YskSaPXEnvD1jaukruiSuZvD6VcLzR+W5d/9XLS57eGehUKhVRRvTBtma64eXsqa11atH3i1rv0yTkp17nVa6n/F+Mpv7OL2x3QT452q3V7i+RbpQ3WYXVOSojEXhmP8chY1yJf66TxZRdvU/v2lthSLpdHrdt3SpJCZqcuHekOJ2yeelLt/vjtSTI8avW36MFNXXrzuy8kxhDZbnQbyQmbJdravkM+mdNOiORb06b2uH1xGS3hfZcUCnXpzSPdOXbETB/Dht1fnrS/HhlGi3y+BvUdCe9rpnFZli/7+kvQrB3PPp0wsZRhbJDfv0EPburMeizRjI+NTGxeJb/LpVCoS+8dUdKb/NmUlVs9xbfhRa1+IrmefL7lWnHgubyG8cinDb0bP6/H25tjE8NF1zP8LTJ0Ud8PBrI+xr07P6/HW5O32epv0YNp2zG+rqStT+yQP1JXIZ3Rof5wDCGzU5e+mzrJ6nvsyfAyPfv1zUKOUQ0AAFCCSMQCAMqGq2qBJOn2aOLrKJXV4WTF6HCWrwiFxmXdHpKrqn6KZVwavWLJGks/k3rJ6O2XGWqW4WrRis1S57GJr6LJr1BoIJaQCfeeCydRfO1PTgxp0HtQB944IzVGkjChAZ040BGZpOhiOBljSY2GIdPsUvfRid5/3o279Hj7ehlGix55aos60/TMzVfgVIcO9GkiRrNLJ46eicVY6JfFrI2fV7s/sf4kyett0+qHJhL52cSVT/01P/G06tWt428c1One8GdNa8Jt6TI2aPdTV/TNDOs+q2Njum1FEozhbSUnIXMpqxD1dOBvDkbqfq22PrFefsMjX/vT2nBkqmT39HKJzdr4eX02klA1ezp17K2TseOiac02rYj8/2yOpfjktvnOfr126mLkmyVa/VCbWv3TjyHteahNvnpTPe906L0+qbFRCpw6J7N1verTjPdrWT6tbjHC8Z49rNIcSBoAAKBwSMQCAMpG6M4NSVJFVXXC5+O3w59XzTV0M5sNulxyV9YodHs47SLW7ZCuHgr3bq2sLfFkbOCKTEnGpI8t7y493mqEE6p7JpJcbndAnfu/o0sKJ3GiQxq4gwF1BgOyNq5SuzySBtR3JLmH7elXXtDr0deVI98Fj72q59Wgb21vkYyF8lqWLa8qu4Md6gwqLsZ+nY4fSqDAZW5a2SxJGjye2KswGOxQcO9EednElWv9uVwe1dd36c2vJiYRg8GJtpSvTTu8h6dNnmZ7bExmrHtG31iX+FnI7NKbr7yQ9Op/rmXlVU+a3Ds4oL2vSM8+tT7lHyyi6lu26TO7U1RYf+IkXtnGZllt2t0ePpbMd36g70+aECwYfFGdkf+f6bEUrVdJ6nljcqI1oODeDvXt/nO1+13ybfqEvEeSe0u7XB75fMnHlFvSscB6tfvTHAO+tWquV9rezwAAALMNjzsAgLIxfqtfklRVmziUwMjV30ihkOY1rUm7bu3dK3XX/KUJn82ZWy+Xu1JWZLuzlW/N8vDryoGOlIm5wKlzMkOhyJAGmQ2A63YHFEwzZmS4Z25Iqm+Q83NIF1Z9w5KCbCff+hs8fjBlT87Avg71hEJyRSfKmoYdx4bLaNEjT31Fn9npy7usfOspcDTFEA2Bk+oeDP9fo7E57T74/cn/fHHtn0tsvsfawsM2mJ16bV93mqizE63XkNmpQ0dSL3P0rX+OxBPu2ZpKumPq6NlInCmOgU0PrZfhcqVdFwAAYLahRywAoGzcudal0Pio5jV9SGZgYjzYsRt9unbhuDzNH9NAsEMjV99LWM/j36Z71j+j4NH/oNHrE+PLzmtaG15/4FfF2QEHxL86PKiF2rCxLXmhxoa8yvB629S0eKEaVzbIY3hkyAgnhkJ5bbakHD3brXZ/i1z+nfr6s6v05isH005elK1s6y8UGlD3qW6l+nu8292h9wI75PdHk4zpYyzEsTG5V2d4mIFt2tjaLP+6Z/RFhb8vRFm51NNAb/LnbndAfam6jsfvV0+njp29kvxF78Xkz7KIrakhUgddJwvSUzyhXqfaZuCkugfXq9WIJOhTDKBs9qU+pnTkjHram+Wf1IPYstq0wjf18QgAADDbkIgFAJSN0PioxvpOaP6S31NlVa3ujN2IfXfh+F+r+mPfVsvvf0NXu36qG1d+LZe7QguWrlf9vZs1GDyia787mrA9w7dF1u0buj1wuti7Yg/fQhlKn4Ay/BvU7k+/eraJ05QTDkkyzVmUgY1wH3tRP2yMTIZktKj9cy16JDLO6aEcZ4ovpfor1LERHmbgxdgwA/Wt27Rh3wuKP/OyLcuReuo/qc4MJp7KJjbL8qkxkvxNm/TMQ6bbTJWgT3fNkMLJ/UPH2+Rf55Fv5RbpWGR4guikbD2pezgDAADMRiRiAQBlZbj779XQtFmND+xS78kfxT6/fWtQ5372v6lp9b9Sg//31Xj/dknh3rIXfvlD9Xf9TKG4DM+8prWqW/hBDb/3I4WsO0XfDztEXxMOmed0OqCknIzZs1/Hzk61hcwnuYpOOBQKDajnnQ4dOnUx9pq25d2lZ59arymmQJuRgvtf1PP7Jnp8Gq7wBEi+TZPHIZ1eqdVfIY8NKW6SJ3nU6FNC3i+bskqtnuKVcmyFFmtP3yptsMLjRUfHTWaSLgAAUE5IxAIAysrt/tMavXRUjSv+UEO972r48kRv1jujQ3r/+F/r/RN7VFXj0fjYDY3fHknaxpy59bpn/TMaHx3Uje4fFzN821jeXdoYGfsxflzMhNew+y9O38svg2SiZfn06Ka4yav2Z/mKfmTczBRvR5e8aI/Pzv1xvSGNDXr8sZNJEy+lk3f9Tbnt8Ovi0vQ9JO04NgpZlp31lK9cYouvg+mGjchU5ttcIk8kK5xLb1x38NXIpF3h4QmOHokOS8AkXQAAoLzw2AMAKDvX3v2erJv98m5+VrV335+8QGhcYzf60iZh7/vo/6rKuQt07cSfKXQneZl0rDvSyG+taf+NXi7uq+XR3neGy6VQz/5Js6ZLl/pNSVJ9y1p5M5xwaWqTkzqJYpMyTRadwCjaS3KyyKvOM0Xw2IuK5hOzm8Qrx/qLcLk8al6TepKp2OviU7xqHq/wx0bYxD4MqC+Qa1n51ZO9costVget2zKe/Gw6GW0zdlxEEqc5iE7a5Vu5JTbpGJN0AQCAcsOTDwCg7FijgzL/+atyWWNqfuhrarx/u1zuimnXm9f0IS3/+J+rut6r6ye/q7Gr72ZZbkjmO+PT/hs+V7iE1lS83jbt2P1lfetzG2Kzpu/dczhpuehs9C5jgx5/LHUCz7txlzZ4M437ogbSzDpveXfp8dY0syAFrshUOJH44ENbEtez2rS7PU1yMROTZqcvNK+3bcrk4WB/6kmcUseVY/3Fb7b1Se2Y1F6WN64OA5mN21noY8OyfNqwMzw+rKSERF32ZeVfT/bJLbbAvg71hEJyuVr0yFNbko4py/LJm66u0xzj024z7rjIK3F65Ix6QiHJt0pbG4y4SboAAADKB0MTAADK0p3rPRr4xRe0oPXrWvLh3Wq4/2GZ3W/p2sUTunXtfGy5OdWG5jWtlXHfR1W36AMaHx2UeewrWSdhnWase0bfWJf+e/Od/Xpt3+GU45S6g6/qtePL9dl1HhnrntHXWwcUCAxMbNvXrHqZOrEns1jc7oBOd5lqjWzviy1dMk1J8sjv98js6ZLpa04aHzN+0h+Xf6e+/uwqBSLrGT5D9YFu9fialaqzbFpxM7o/8qWntcKUZPTrve++nJRwmqoOzXd+MOXQAk0P7VD753bK7OlSd/8ZSavkaWmW33ClnjV+yrhyq7+oUGhAg4OGWj/3HTWbieuGv+/Sm3sOZzSUQL7HxpR12rNfr+3rjsWRbVm5HmfFkM85sPfAKj3b3izDv1O7v92mwcCAwn1aw+eBjr+g7wfjjsVpjnG3u0N79ywM94pPsc3YcWF2JrRH9vscPX9b5Pcr7VjUAAAAsxmJWABA2Rq/eVXmL76oucu2qfb+P1bThz6tpg99WpJ0+5apyqoFckWSDtbYDQ2/9yPd6P5xVsMRlDLT7JLZdUaHognYKRIswf3f0Q/7ojO8TyRnpEhiL9CRVVIlsO/HOtDwpNr9HhlGi4zobPDv/EDPn1qrZ32pezwG939HBxq+rHa/Ry6jRf7oej37tXePtPXb2fWKTUhsRbYXCknvZbWVDPSbkt8jw9+iVn9L7OOQ2aU3X3lBnZN6n04XV671F9X9ygvqe+hJtfsn1pUks6dTr+3JbuKwQh8bptml7qMH9fqxQNIxmW1Z+daTnXKNzX3sRT3f26bdT+yQ3/DI8HsUbcJQaECBvknLZ3CMu4Ov6vk9V9Jv83jHxHUin32OTNpluFwJY1EDAACUC9e9Xn/BBqLzGPM1YF4v1OZmTNl2lO/xzdPaT/h08uWABgJD0y6/bGmT3r+QzXzEhVPO7e50DLS7c2h3Z2RS/qf/6JP61a9+JTPcvSwrlfN8umthqypqFspVWSOFxjV+84rG+v9FY/2npdB4rqHPKpbXF9frtFvBDF5hT7styydfZGPBYOaTD8Wvp0B3QRI6Xq8v6zhyLUNSxnFPFVeu9Zdq/ULUYyGPjUKWlW892Smf2BLaL4P6zuQYz3ab2YiOR12vbr351ReyHubA4/HogQce0Fs/f1u9vfbdB2fbPT7T3xVO3+OdjmG2tXu2yrWK7qWJAAAgAElEQVTunT7unW77cq77cj7ny7nuS6Hd6RELAEDEnaGA7gyVVpKmFLmDAQUn/iu/bbkDCganX27K9QrUq64YCbqEMjKMe6q4cq2/lOsXoB4LeWwUsqx868lO+cSWuO709Z3JMZ7tNrOx6aHopIBnmKQLAACUJZ6AAAAAANjKstq0whce6uDEW8mTAgIAAJQDErEAAAAAbGNZPj36pR3yu1xSoEOv2zhkBQAAQCljaAIAAAAABWdt/Ly+tT1+crpO7d1zuGDDiQAAAMw0JGIBAAAA2MI0B8L/29WhQ/sOF2RiPQAAgJmKRCwAAACAgnMfe1HfPxb/AUlYAABQ3ngaAgAAAAAAAACbkYgFAAAAAAAAAJuRiAUAAAAAAAAAm5GIBQAAAAAAAACbMVkXAGDWqaurk8vlcjoMoDhcbilkOR0FYLu6ujqnQwAAAMgLiVgAwKzj9XqdDgEoipHa5bIqalR3/V2nQwEAAAAwDRKxAIBZ5a2fv+10CEDRLHn8X8ldVaP39/8lvWJRNswB0+kQAAAAckIiFgAwq/T2XnI6BKAojPu36q7G+yVJdxpb1ffuTxyOCAAAAMBUmKwLAIAMeYz5jpW9bGmTY2VLzu670+U7ve/p2v6ej/7biWU+8oxc7oqCl+30vpdz+U6e807Xe6nEAAAAUGgkYgEAAGYY4/6tqlvygdh/Vzd4dffqP3QwIgAAAADTIRELAAAww8T3ho2yq1csAAAAgMJwrV27NuR0EEg2b1m1mh9epO6fXtbQ+zenXb6mpkYjIyNFiAylhHYvT7R7eaLdy9fktq/ztWnZjv8j5bIX//Hbun72QLFCg40458uTHe2e7e8KFB/ne/mi7csT7V6eou1eOWBeL9hGPcZ8FXJ7M6VsW8qvD+fHh4ZHNGAOTbt4TU1NWda90+3udAy0u3Nod2eUc/lOtrtU3nXv9L5Pbvtln9iddlnjw59RsPPvFbLGC1K20/tezuWX87Xe6RhmXbtn+LuCdp9l7Z6lcq17p497p9u+nOu+nM/5cq77Umh3hiYAAACYISaPDTsZY8UCAAAApYtELAAAwAyRamzYyRgrFgAAAChNJGIBAABmgOl6w0bRKxYAAAAoTSRiAQAAZoBMesNG0SsWAAAAKD0kYgEAAEpcpr1ho+gVCwAAAJQeErEAAAAlLpvesFH0igUAAABKC4lYAACAElZ978asesPG1qNXLAAAAFBSSMQCAACUsAW/95mc16VXLAAAAFA6SMQCAACUKOP+raq6+/6c16dXLAAAAFA6SMQCAACUqFzGhp2MXrEAAABAaah0OgAAAAAkq120XNbtEY1eelejo2Mpl6msXqCahfdr5MpvdOfmtbTbqlu6RkPn/7tdoQIAAADIAIlYAACAEnTj8jn9y3/6rJYtbdL7Fy6lXKa+5SN64NP/r377T9/TYNcvihwhAAAAgGwwNAEAAAAAAAAA2IxELAAAAAAAAADYjEQsAAAAAAAAANiMRCwAAAAAAAAA2IxELAAAAAAAAADYjEQsAAAAAAAAANiMRCwAAAAAAAAA2IxELAAAAAAAAADYjEQsAAAAAAAAANiMRCwAAAAAAAAA2IxELAAAAAAAAADYjEQsAAAAAAAAANiMRCwAAAAAAAAA2IxELAAAAAAAAADYjEQsAAAAAAAAANiMRCwAAAAAAAAA2IxELAAAAAAAAADYzLV27dqQ00Eg2bxl1Wp+eJG6f3pZQ+/fnHb5mpoajYyMFCEylBLavTzR7uWJdi9fU7V9rXej7nn0ezr/kz/RjeCxIkcGO3HOlyc72j3b3xUoPs738kXblyfavTxF271ywLxesI16jPkq5PZmStm2lF8fzo8PDY9owByadvGampqyrHun293pGGh359Duzijn8p1sd6m8697pfZ+q7a2G8EP80PCIBm2I0el9L+fyy/la73QMs67dM/xdQbvPsnbPUrnWvdPHvdNtX851X87nfDnXfSm0O0MTAAAAAAAAAIDNSMQCAAAAAAAAgM1IxAIAAAAAAACAzUjEAgAAAAAAAIDNSMQCAAAAAAAAgM1IxAIAAAAAAACAzUjEAgAAAAAAAIDNSMQCAAAAAAAAgM1IxAIAAAAAAACAzUjEAgAAAAAAAIDNSMQCAAAAAAAAgM1IxAIAAAAAAACAzUjEAgAAAAAAAIDNSMQCAAAAAAAAgM1IxAIAAAAAAACAzUjEAgAAAAAAAIDNSMQCAAAAAAAAgM1IxAIAAAAAAACAzUjEAgAAAAAAAIDNSMQCAAAAAAAAgM1IxAIAAAAAAACAzUjEAgAAAAAAAIDNSMQCAAAAAAAAgM1IxAIAAAAAAACAzUjEAgAAAAAAAIDNSMQCAAAAAAAAgM1IxAIAAAAAAACAzUjEAgAAAAAAAIDNSMQCAAAAAAAAgM1ca9euDTkdBJLNW1at5ocXqfunlzX0/s1pl6+pqdHIyEgRIkMpod3LE+1enmj38jVV29d6N+qeR7+n8z/5E90IHityZLAT53x5sqPds/1dgeLjfC9ftH15ot3LU7TdKwfM6wXbqMeYr0Jub6aUbUv59eH8+NDwiAbMoWkXr6mpKcu6d7rdnY6BdncO7e6Mci7fyXaXyrvund73qdreagg/xA8Nj2jQhhid3vdyLr+cr/VOxzDr2j3D3xW0+yxr9yyVa907fdw73fblXPflfM6Xc92XQrszNAEAAAAAAAAA2IxELAAAAAAAAADYjEQsAAAAAAAAANiMRCwAAAAAAAAA2IxELAAAAAAAAADYjEQsAAAAAAAAANiMRCwAAAAAAAAA2IxELAAAAAAAAADYjEQsAADADDVqntf5Q3+lUfO806EAAAAAmEal0wEAAID8fPqPPul0CHDUVWnJBkkbnA4EDnjr52+rt/eS02EAAAAgAyRiAQCYBYLBoIaHh50OA0CR1NXVyev1Oh0GAAAAskAiFgCAWWB4eFimaTodBoAicblcTocAAACALDFGLAAAAAAAAADYjEQsAAAAAAAAANiMRCwAAAAAAAAA2IxELAAAAAAAAADYjEQsAAAAAAAAANiMRCwAAAAAAAAA2IxELAAAAAAAAADYrNLpAAAAgINcLs1ZsFwVc++Wa06dQtaorJv9un3tnELjo05HBwAAAACzBolYAADKUEVNk2pbPqm7mj6iirlG0veh8VGN9Z3QcPff63b/aQciBAAAAIDZhUQsAADlxOVW3crPqtb/hOSu0I3Lv9b1i/t089p53bl1TZV3zVNVbaPqmlZrwZIH1dC0WaOXjurau9+TNTrodPQAAAAAMGORiAUAoEy4KmtlrPuaqho/rOsXT+jiyR9p9PqFlMsOBH6uyqpaNT6wS40r/lANW/5SZuef6s5QoMhRz3yW5ZNv8xI1Sbp05LCCboboBwAAAMoRiVgAAMqByy1j3dc05+616n33P+vKmX3TrnJn7IZ6T/5IQ73vyrv5WRkbn1P/4S/IunW1CAFnz7J82rR5Sfg/eg+rM5g+4Rm/7KXewwpOsWz+lmhr+w75ZOpE72EFgxPfeDe2qen/b+9eg5u6EjyB/++VLFvyS1eOwTYGR7IJkAdhgjEGJmHSdG/HDHn2ZmY71dVLmBTpqtnq3lRqe1O71Zl08mFSvZXtTdfO1iSbplOZVM+HLEloMkPSE4omtMFOIE2gaSCxLUzAxtjW9duyJd2zH64kS5ZkS7LsK1n/X6GydV/n3HtkIf11dE7cfXpw42Rnzoa2ic9rBkNpIiIiIso3DGKJiIjyQMn6J2GpvCfpEDbSWN95XDnxMurvfx72phegnvghhNCS2le2ABASNJ9Io9apkWU3sH4/WlwShNgA/OR1tCcI+rbtC26ntuPNVwAYkAdqmhN3bduDRkWKv8FuQO06jPcP5FZgOe95ARDCExNKExEREREtdwxiiYiIljmTdSWKXY9hpOdM3BDWvroZ9lvvg9Veh8DUKCbVLvR/eQTe4a/D24wPfIneL36Nmnv2omjVNzB57eM5yyzdYELZnTL84wKSCTAV6aHc9Xd8mT25WU4d+xTNziYoUgOaH65H++HYoRS05qeCYa0HZ949mBUhp1A74FZn7itKPRRFguJ6EHufXYE3X8mOeqZq9nnNGET/EtdFq9uBvY/tgBNf5ez1JCJaLEIs/gemLJvlExGDWCIiomWveO1fA7IJPWffjlouySbUbX8G5bVN8A5fxWjPGUiyGaXV90Bx7cL1M7/EYMdvw9sPdHyEitu+jeLbvjdvEFtcr4dcff/qBwCUrpdRdpcpw2cWS+5+D++fXosntzhgb3wce869jA8ihh3QNCce2lav33G3Rq0z0lDHUbw1KzSue/DHeHKLA7CvxV1O5GTv0XjnNWOJr331BrgUB0TcYJiIKF/MFbwZGcrla9nZWn7ib7UQ0cJkx7sPIiIiWhSSJKOw6s8x1nchZmKulXf9Ncprm9D7xa9x+cP/gmtnDuDrz17HxQ/+FkPdn6B289/AVrE2vL3QAvB0HoW5ZBXMZa7EZcqAyQpo0zMv7Cd7kxvKIBPch97BaVVAkhzYfP+9UeucDz+ORkWCEB348MCJJatTOtyHWtEl9PNwVBtdGyIiyi0i6iZE6Ia4NyD+8qW45WvZ2V2+/ngBZt+IaKHYI5aIiGgZM5c5YSpSMNLzfvRySzEqb9uNkd6zuHkxep3QAvj6s9cxNXoDpsKSqHUj1z9H9d3fQ+GKzfCPdMUvNNjxVQQili1dDgtZduM3736K+n1NUFwP4vvNJ/BWmwyt7lE80qgAANxHYseP1TQnnNtrUAV9Iik36uHcvgk716+FonjQeeoozkdMoKXV7cBDGzfA0eCAonrQeSl6/VLQ6pzYtnEX1jU4oMADteMijp9LPPlYePsKQFEcwBz1nn09umUZdc2PBq8HoKpf4fKxg3NOipbWuSRRt9h6bsLO9RXh/dTBmeug1e3AtmoAlY7gHhW4a/u9wcnE4k+KpmlObHt4E9ZVzByzc/Aizh+KP15vvMfOtof1c8GlozgOfR16e9DeHb+H8MwEcrk9URsRGU0PywQzs5yQ7UMDzK6eJIUWsMcsUboYxBIRES1jJutKAMDUcHRv2OLKDZBNFqhXjsfdTwR86LtwMGa5d7QXQgiYrCsSlilFvDY3F0tYuXvm5caqxwvi7uPt1TD4+0DcdemQu99Dm7sJLS7Aue07qDt5EFX3N0GRJIiuw3irLV7IVYOdLXvghIozvcDOx/bAFZ5wyoHG3Q3YvK0db75yENi+H0/ubpjZVXGg0TWzPiMh2vYNcEl6793LJxHzPabw0AVhDihbGuBs3AH3kXfwVttM4KdpTmzb9zhaXI7og4Tr3YEPX5kdTkdejx7c9dj+qAm4FGUrnM61WHfk5QTXMznp1S14DZqfwiMt9VAiH3SKA4qrAQp68Gq3G86NO9AScZ0kpQGNwbYTogMfnuxE5KgPdQ8+hUcaY4/Z6GrA5jjXVpf4sSNwEccH9ToItR03XokfsjofflzfpuswfhpzfCKi+SwsgM3XcVqzPQhdbKmef2hzBrJE6WMQS0REtIxJlnIAgG9qJGq52aoHU1NjN1I7oAhA841Cstjn2EbC1E0N2rSxL85PHfgA617aA5eyFTv3VUBxBoO3AyeAOYJSSXKg8W8ehNrVjl+9e1ZfuHEXntzSAEnZikf2VQDOeqhdh/H+sR4AQNVGPUSTlK3Yuf0g3mpbWN1DAaMQnri9d0MhrL5eDwb1Xpx6PZwtj2NPb/T4uJWKAlXtiOrZW9f8KB5paYKiNOCBffei/c3WuPWpf2w/7OjEkV8ehf6I2YSdjzXBpTjgbNmPrSfjB6XJSqduWvNT4TBc7WpH27GzCD2aqzbuwrrg7+5zrTjSD6AyFIZ24Mypi8HJwnoQ+RcQGW6rnx3G++d6gmtqcNf9O9DocsC1+2l8Hz9OGD477t8Bp11F12etuNwPVFYC7nNfQW1sgj3BeL+a5sRdDcHe2pdOgKOHEVFqBHvA5qhcDYKjA1mGsUSpMNeuqsroAW02W0aPlytlZ7p8W4UFAHBLhQLbdHFS+2S6LVORz+1udB3Y7sZhu7P8pZZOuwv/OADAZLFGLQ/49OWWIgWTqRxQkiCbbRC+sYSbaD6BgeN671ZzsXEvzmW5FW8e2YAXdzfA5QoGdp8dTSowFGo73j8Q0bO1+w38CnpIp7ga9F6LEcFgd/fPgIq/R4tLgnP9vUBb/EAzEWXL03hhy+w6dODDd1+P+ep/aIgFITw4c2AmbJVlN9oP/ww3gvXcfP+9+CCijufffR0fhL4WHzyv7rb38HNU4MXdDYCyAnWaFtNbU5IcsGN2T1833nwXeGZfExSpAeu2A+1xwmd7wy58f2+cEx6MnsQr1bpp2g7sbdEnXVM/ew2vzpoQrLv7DbQHf5e7W9HeDWjNG9ACB4BBnD8ZMcRAeKiJmaEruv51dtDqRvebrejfG2zjYC/reNfK6ezAhz+JDqZlINhDO7ZdAADOTai3I2Hv52Qsp9f02VCHXHuun0sq7yvY7rnT7okCvHjLkw37rFbr/BstknwtGwBqqhN/y2gpzHf+khT7Wi7esrmWJ2L0c04u/c1nWj5fe6Pb3Xzteoo9YebgUMrgUUfm33ARGFn2YpTvsJSiFnYMDKrwXB+dd/vaVVXIZFumIp/b3eg6sN2Nw3Y3Rj6Xn267B7yDAABL8QqM42J4+cTAl4AQKK3aiOHrp+PuW3zLevinR6Mm+SooskOSzdCCx816Jy+iq6U++BV/DzrPdSKZlMt9KjZkc/d7AOi9UM8ci+21eGNQBVyOhIFmqiSlAQ/sew7rTr8TFVo6N64NDrHQGtXjNVzPUO9L5wZs1U6gXZYhy+6YXphhvYNQRT3s9gpUAYi3WbzrAfdZdA41oVEBlMp6ALFfp5eUBriU2OMJXAxvn07dnA/v0NtUbcf7hzrn7OGcrPB1VdtxPEEYeurYp2h2Ju7ZCgBDp+OH/acudaLF1QBEtEvItuCwGcl+UBDPcnlNnw11yMXn+rkk+76C7Z6L7Z5MT9jkessq9lKoQ/O/71wM+Vo2oIewPb03DSs/mfPXs9W5A9ZktpnN6Oec3Pybz4x8vvbZ0O4cmoCIiGgZ8w93QASmUFp1N1T3zHiw0+P9GL5+Go76b8HT3YqJgctR+zlcu7C66Wl0n/pfUUFsadUmfX/PhaU5gQXatm8PXMHeGZLkwObHvoPz84zhKoQHnt44K0KhIDzodyMmqAsFtemY3atTH2ZgF5ob6+Ha8jR+BH195FfYh7ACW5t3xB6ssmLOsurqdqCqegUq11fAoTigQNEDyARv1BNdD1l2o18FECdoDZ9XVzvaLsV5g9nbE7sshbpVVQSvQcfZjIzHG3Vd5zpmOHx2wFGNuKm12p8g7A9/KBDdg1jTdmCdEyl9UEBENH/AOv/6qHtCxCxbKvladkQtjCs55vxjw1T9cSTmDFuF4DAFRMmS1tS5MvZXn6+p9mKU73CWYtN3nDh70A2Pmz1is7HsbKgD2904bHdj5HP5c7X7E9/9K1y4cAGqqsZdrzT9FOaKu3Hp8H+Cf3o8vLygyI6Gb72EAustGOj4COM3/wRJNqF8VRPsa7Zj6OopXG17NeorjfXfeB42xYn+j/49hOaft96zJ+tKJBOTdb3w4ssL2p/ISMI3jp++9FLS2zscDtx+++049rtP0Nub4R6Uef7/bLY+16cr2fcVbPdca/dEQWu85SLm19mb5GuvVPaIjT5/KeaXmDv6krjDFcTfNhGjn3Ny728+c/L52mdDu7NHLBER0TI31vn/UFG1HZW3P4res2+Hl/u8Q/jqt/8NVXf9B1S4voHK23YD0HvLXv/8Vxjs+G1UCFtatQklK+7E2OW3kwphl9oLzz8X/l3TdmDvS3pv2NB4nzMTXMWO4Rm5jxNq1Nir4fV1j+KZfU2wozP+/s1P4cXdDRBq9HiqiY6raU489Ox+NCpS3HFOo8vU9/2Nu35mn67DaLs01xXpwY3gxFfhugkP3KdbcfxcD7qDY7ImOq/5rgcAbA2OmRpZ/2TOK+51S7JukcePHcs1iXLU2ePdIuljJjq3ZK5VovMJXUP3v/0U7A1LRAszO4QVoX9xt426l6e9Uo3uEZtt5YtQkDrrcTSTsUrh/VIdD5aIdAxiiYiIljnf4HlM3TiFynV/idHeLzDWdz68zj81imun/y+unTkAi82BwPQ4Ar6JmGMUFNmxuulpBKaGMN75zlJWPy2hIQkix/t0H3oHpxv2o1FpwAP77kX77AmTckDUcACDPWhvmzvkRCi43KZPbDU0a7xZo6VTt8hrkGhs2lQlf8waOOz6bwmHIJirnO73gpN26cMTnDoZGpYg/Um6iCgfxe8NG1q2ZnVtyke0WgtRXj7HWDOLKF/LBoCyshJYLEWGlZ/O+V/9+msAUkwYy+EJiJLDIJaIiCgPDH/xP1Fx7z+gbvszuHLiZYwPfBm9gQhgerw/7r4FRXbcet9/hbmoHGrbcxD+2KA2Ec0PTFzR5t3ON5S53iBa81NocemTc515d6bnoyy78ZtTnWjc3QDJ9SC+33wi6d6URglPICVmxqUNTQpmb9iEOq0ziTFS5w4PZ8pYjDOYT3p1C1+Dxl3Yeii2d3I6kjrm9g3Bid/SD05Dk3Y5198LZ6U+6dhCJukionyTeEiCyJ+1Vz6PXp2pbCzd/ytSLT9T/ydl2XnHq055MsUt1XVPJFj+tVvv0QNXCEBiGEuUDgaxREREeUCbGoL66U+gbP171N//PHq/+DUGOj6C0OYel7W06m6sbvoBzEXlGDn7CqYHvkixXAH1s4WN/ZpSedoO7G2Z6WE5+yvictsbOLJe/yq4s2U/tp7MTIiXafpkXY+jZYs++dfQ6Zmgzn3uK6iNTVCUrXjk4bNxv/pf1/woqnoPor1bBtADzxDgitPbU6t7FI80GtcTKN26uQ+1oqtxD1yS3rv5xoETMUMNOJ2d6I43RIC9AlWInWdr3mPWRT62FhCcBiftcjo3YCcUTtJFRBkhonNYykLKiiqjq7Agal9wTFMhICRJD2MhAWDwSpQKBrFERER5wj/SBc/v/xbljX+Hmnv2ouK2b0PtPIbhnjPwDn8d3q7AqqC0ahOUW+9Dyco7EJgagtr2XMohrBHCQxKIDrQd6gTihGWnjn2KZmcTFKkBzQ/Xoz0LvqqvbHkaL2yJv07tOoz3I85F7n4P759eiye3OKBseRp/1+iB2+2ZOZazPjimrH5flt0436GiMbj9jxo6oM/r5oDL5YDa1QHVWQ/74p5iXOnWTZZb8eaRDXimpR6K60HsfWkHhtwe6NPVOaA4FeD063i1O6JtgwGoS2rAA8/uxzoVgDKIy68cRLss68c8sALP7GuKe0yXSw/Fhdoe1R6pn3Mrjp/eAdeWBrhcgFC/wvlgb2ciovTMpLAJc9jQinTzsoUGvMmWn+kgOVfOO4eI4JixQkiQpFAvWKNrRZQ7GMQSERHlkcDkANTf/whFtbtQfNv3UHX3E6i6+wkAgM+rwmwphxSarGl6HGOX38Z45zspDUdglNCQBADgPpK4p2tkkGlvfBx7ziWeXMlIqtqBzlNH8UGbOyb06z78M/yq/yk80lIPRZoJCQFACA+G3K1R4Z770Ds4UvE4WlwOKEoDlGBHU/Wz1/Dzc5vwjLN+ic4qVrp1k9vewM97d2DvY3vgUhxQXA6E+s8K4YF71kgbUeGt0gCXor95vBy5Tfd7+PmBm4mPeboVxw+dSGI4iHnOOdSrWZLgPnVwwccjovxmzNAylLeCE8Dp4St7wxKlSlpT58rY07ZDKYNHHcnU4XKm7MUo3+EsxabvOHH2oBse9+i829euqsK16zcyVn4q8rndja4D2904bHdj5HP5c7X7E9/9K1y4cAGq3pUwJeZSJwpXNMJkWwHJbANEAIHJm5ge/COmB88DYumGFaD0aHVOOMP3EnwdP7St5oQzuHF3t/E9gSMtpG6R+853DQCgrs45bzmpHjMVWt2jeGZfE+zoxIc/SW94DIfDgdtvvx3HfvcJensz+3+C0c+1RtchW5/r05Xs+wq2e260u4iTuoaXCb1HbN2a1bFjxJLhlJXpD02QamiT6WhUABjqu4Frt94D95UrkCRJv0ECJCkYys6UKiXRRdbo55xc+ZtfDPl87bOh3dkjloiIKI/5R93wj2ZXIEepkbvdEeOdzh3oybIb3bMHR80SC6lb9L7zh5rJBL2pHjMV2+7Xe8OKrotZOUYxEeUSMes3do+lxRM1+IUAhMT+sESp4is/IiIiIqIlomk7sM6pD3Vw5tgJo6tDRDmFISslR2DxHi1CBG+zlsXWgIjiYRBLRERERLQENM2Jh57VJ5SDuzUrxyYmotwSE4Ax/6JFxwcd0UJwaAIiIiIiokWkNT+FF3c3hO8LtR1vHjgRMwkbEVH6GIYREeUCBrFERERERItMVT36z45WHD90At0MYYloETCOJSLKbgxiiYiIiIgWkdz2Bl5ti1zAEJaIiHKZAKfpIkoPXwUSERERERERERERLTIGsURERERERERERESLjEEsERERERERERER0SJjEEtERERERERERES0yDhZFxER0TJQUlICSeKkCUT5oqSkxOgqENEydcp8S0aPt80/kNHjLYSQJIwX10LWfLBN9EGfdCrOdrIJ47YqWAKTsEx6lraSRLSsMYglIiJaBurq6oyuAhEREVGWM+HmLX8Gf4EVq78+Cqs3fkjsLarA9Zr7Uek5B8U7BEloS1zPaKGP2v/x8864639wT/2c6zJVPhEtHINYIiKiHHfsd58YXQUiMojqUY2uAhFRztDMZniLKjBRqMCjrEN13wggfIDQo0b9y0Uy+is2YtRahZLCbtglk+FBLBEtHwxiiYiIclxv7w2jq0BERESU9XzmEkyZbAhIZgyWbwA0AU0yQTNZAACmgBeSpmGwbC00SL7QKBcAAAmUSURBVPCayqDJZsiaz+CaE9FywSCWiIiI5uVQyuBRR/KyfKPPvXZVFa5dNyZsN/rc87l8I9udiGi5mrKUwy+bAU2Dt6AcvZWbISBDBMfZl4QGCQKaZIEQAr6CYvgDgsEJEWUMn0+IiIiIiIiIaF4OZxHWf1uZcxvPFS8ufZidw6ZMFpQjoAkIyQ8ACMCkj38anrNL1n8VAUAAXqkQKCwBvN6FFcxBVokoiEEsEREREREREc2pZEUBKpxFEJpAWbUF9trCuAGjbJYAZGkQaymD0DRYCmSUlxRheGIa09PRww6YTCZUlFsxOjYFv8mC6QIrihaYwxIRhchGV4CIiIiIiIiIFpGUwm2WlRts2PmfV2H9AwosNhmaX+DLj4fw25euovePE5kvfzF6j0qAkGVMmkogtADqV1fg2b3fwqbbqqH5/RBaAELzQ/P7sWZlGf77/t3YcudqBISEKVPxgsplb1giisQesUREREREREQUxWSRsPmJFbA5zDj99k2s3lyCwjIzuk6MoHZzCdbusqP1//Ti1u2luPOhCqOrO6+AXIBpuRBC88M7OYm+gSGMj49DaD4ILZiWSoB30osbN1WMjY0joAlMmmzGVjzCD+6pT2sdEWUPBrFEREREREREFOX2v3SgZlMx/uW5K/h3z6/BxSMejPb5cNs37Tj52g3c96Ma3PmQA2fe7ofrz8thc2RhvBDRG9VvKsK0bIHQ/Oi62odf/NNH8Ps1mGRghaMUEAL96hiu9w3if7zxL/AHAtCEBq+8gB6xGfaPn3fGXf6De+rnXEdE2cPsUMoyesBMHy9Xys50+aUl1uBPG6Ak912GfL32Rre70XVg2cbJ1/M3+trnc/n5fO5Gl89zN04+l5+vZWdDHZZT2am8r2C7Z2/ZQoiE94UQUTertTAjdbpychTrv61AqSvEaN80TAUyhNBQu7kED7ywBtMTGv74Gw/u/WENfJMaPN1TcNRlpuzF4JML4dMAAT8CkBAI+AABmM2yPiyB0AARgBbwwxsIjhsrBKbMNghJhiQ0Y08gC1iLClFeVgJJkiDLMiRJirlFmn1/NqOfc7L5b57lL9+yzR51JKMHzOTxcqXsRSnfrv/HOjo2AY86Ou/mNpstL6+90e1udB3Y7sZhuxsjn8s3st2B/L72Rp87/+bzs/x8bnej67Ds2j3J9xVs91xod4FZeWxEIKuvE0LAbp/KSL1G+6Zx7uAAtvzHlfj9P/Sgae9KqN1TuHFhAn1/msBI7zT+4tlV8Fzx4sT/7kHAJ/AXz9RkpOzF4JVtCAgJUkCL7inrC6DnxgAAQM8NZ1YKAUxJZgRMFpj9nLFr0juF4ZGxYOgaCmIBIDqEnX0d4zH6OSc3/uYXRz5f+2xo9yz87gABAIIftplMHNmbiIiIiIjSE34/wc58lIbL/zYEc5GMbfur8fmvb6K4sgDmIhl1zaXwTWr4/J/70fenCdRsLMaG3Qoctxbh+tlxo6sdJoQEIZsgiQCmJAsQ8EPM0UtTxFnmgxlTshVmMIglooVjEJulvCPTAICicovBNSEiIiIiolwVej8Ren9BlKoLhz3oPT+BtbvsEJpA5yfDAIDiWwqwenMJtu5bicISk8G1jKVJJvTZ1iBgKkL1ZDf8ZiuE5g9110yaXwCTJhuKoaZeiVCyy/5VRBTEIDZLTQ5PQ2gCNjuDWCIiIiIiSo/NboHQBCaHGcRS+jxXvGj/5Q2s+rMSfOPHtUZXJynXbPUYKa7FHaIL0rgPXhRAaIGUg1hNA7ym7Jmwa7YPXvtF+Oeep39ocG2IaD4MYrOU0AS8Iz5YHdk72DkREREREWU3q6MQ3hEfhBbvS9eUNzLU/D1nx/DO0x1zFxWvLAMefj3W1WgQNyH1dyNgMmMKZohA6j1iNSEwbrIurDKLdP4fvPYLHH7tVQAI/1yMMJbPHkSZwyA2i00OT8FaziCWiIiIiIjSYy0vxORwZiZvIhICEIHciOVkaPB4BewmMwKSGX4hQ4gAIFIcJ0BomET2vS+PDGFDFjOMJaLMYBCbxSY9U1BWl0CSJX6CTUREREREKZFkCUVlBfC4jZsdm8got2p96DYp6LS4UCim4YUpqkfsfHFs+B24EPAaHJ3MTgPihbAhDGOJshuD2Cw2MTQNSZZgLbdgQuWn2ERERERElDxruQWSLGFiiOPDUv6pnf4ahTaB65ZbMBiQIDQZstCgCQGIYLgZr7+TFPGLBJgEIMnyktV7PnOFsCEMY4myF4PYLDYxqIevDmcpg1giIiIiIkqJw1kKYOZ9BVE+mR4bRfnYJVRYrdAKbJi2lGLaZINPNiEgmSFggiZJEEKCkAApmMpKEJChQdYCMIkACoQPBdNjBp+NLpkQNiTZ7YhoaTGIzWKeq2MYu+mFa/tK9F0agm/Cb3SViIiIiIgoBxTYzHBtX4mxm154rmZHiES5YZt/wOgqZJCAf3ICmJyAGQM5H4CkGq5+wDCWKOtkT/96iiE0gcsfX4OpUEb9fdVGV4eIiIiIiHJE/X3VMBXKuPzxNc43QURElCUYxGa54Z4J9F4YQvUddpTX2IyuDhERERERZbnyGhuq77Cj98IQhnsmjK4OERERBcXtme9yrom6LwQQCPgxNjaBoeERaJq2JJVbDC7nGnS5r6a8LtN1SCRUfmRd/FdkBBo0rPtmLT57+yt+ok1ERERERHFJsoR136xFYEpD5ye9RleHiIiIIiQcIiUykJQkCZIElJaWosJhR/+AZ0kqt5zNF/hGrtemBDpb+7BuVw22fG8tLn18DSP8ZJuIiIiIiCKU1diw/pu1KFlRhMtHezjHBBERUZZJamgCIQQ0TWBsbBzFxfx6vBGu/2EAl4/2oKisAI3fbcD6B1bDYs31ocaJiIiIiGihLFYz1j+wGo3fbUBRWQEuH+3B9T8spwmXiIiIlofUkrxgIBsiSRIUezlKS4shyzICgQBGxybh8/mwZs0q9PT0we/XP4UtKCjA6tpq9PT2weud0gs3m1FTvQJXv+4BACj2cpSVlQIQGB0dhzo0BBEszuVcg4EBDxwOO6anfejp7YvaR5YlAHLUPpIkoaJCQbHNBkDAow7Pe4qlJcWw28tgMpkwMTGJgUEVZrMJKypvwbXr0V/tkSQJq2tropZbLAVJbzuXeMMkXP/DAPovDWHDt+pQc4eCqtvs6DkzhGt/6gtvY7NZUbWyEgAQCAQwNTUNjzqE6WlfUuUSEREREVH2k2WgyF4Ex60lcG1fCXOhCT0XVHQd78X0JHvCEhERZaP/D9BbZrDeAnCSAAAAAElFTkSuQmCC;" vertex="1" parent="1">
          <mxGeometry x="344.64" y="870" width="540.71" height="330" as="geometry" />
        </mxCell>
      </root>
    </mxGraphModel>
  </diagram>
</mxfile>
